<?xml version="1.0" encoding="UTF-8"?>
<svg width="212px" height="50px" viewBox="0 0 212 50" version="1.1" xmlns="http://www.w3.org/2000/svg" xmlns:xlink="http://www.w3.org/1999/xlink">
    <!-- Generator: Sketch 51.1 (57501) - http://www.bohemiancoding.com/sketch -->
    <title>logo-header-ho</title>
    <desc>Created with Sketch.</desc>
    <defs>
        <polygon id="path-1" points="0.0414890625 0.289256198 5.34140625 0.289256198 5.34140625 5.04132231 0.0414890625 5.04132231"></polygon>
        <polygon id="path-3" points="0 49.9458678 211.958594 49.9458678 211.958594 0 0 0"></polygon>
        <polygon id="path-5" points="0 49.9458678 211.958594 49.9458678 211.958594 0 0 0"></polygon>
        <polygon id="path-7" points="0 49.9458678 211.958594 49.9458678 211.958594 0 0 0"></polygon>
        <polygon id="path-9" points="0 49.9458678 211.958594 49.9458678 211.958594 0 0 0"></polygon>
        <polygon id="path-11" points="0 49.9458678 211.958594 49.9458678 211.958594 0 0 0"></polygon>
        <polygon id="path-13" points="0 49.9458678 211.958594 49.9458678 211.958594 0 0 0"></polygon>
        <polygon id="path-15" points="0 49.9458678 211.958594 49.9458678 211.958594 0 0 0"></polygon>
        <polygon id="path-17" points="0 49.9458678 211.958594 49.9458678 211.958594 0 0 0"></polygon>
        <polygon id="path-19" points="0 49.9458678 211.958594 49.9458678 211.958594 0 0 0"></polygon>
        <polygon id="path-21" points="0 49.9458678 211.958594 49.9458678 211.958594 0 0 0"></polygon>
        <polygon id="path-23" points="0 49.9458678 211.958594 49.9458678 211.958594 0 0 0"></polygon>
        <polygon id="path-25" points="0 49.9458678 211.958594 49.9458678 211.958594 0 0 0"></polygon>
        <polygon id="path-27" points="0 49.9458678 211.958594 49.9458678 211.958594 0 0 0"></polygon>
        <polygon id="path-29" points="0 49.9458678 211.958594 49.9458678 211.958594 0 0 0"></polygon>
        <polygon id="path-31" points="0 49.9458678 211.958594 49.9458678 211.958594 0 0 0"></polygon>
        <polygon id="path-33" points="0 49.9458678 211.958594 49.9458678 211.958594 0 0 0"></polygon>
        <polygon id="path-35" points="0 49.9458678 211.958594 49.9458678 211.958594 0 0 0"></polygon>
        <polygon id="path-37" points="0 49.9458678 211.958594 49.9458678 211.958594 0 0 0"></polygon>
        <polygon id="path-39" points="0 49.9458678 211.958594 49.9458678 211.958594 0 0 0"></polygon>
    </defs>
    <g id="Page-1" stroke="none" stroke-width="1" fill="none" fill-rule="evenodd">
        <g id="logo-header-ho">
            <path d="M43.0210937,15.2764463 C43.4351562,15.3177686 43.6007812,15.5657025 43.6007812,16.0202479 L43.6007812,20.6070248 C43.6007812,21.9293388 43.8492187,22.9623967 44.5945313,23.664876 C45.3398438,24.45 46.3335938,24.8632231 48.1140625,24.8632231 C50.846875,24.8632231 52.3375,23.2103306 52.3375,20.7309917 L52.3375,16.0615702 C52.3375,15.6483471 52.5445313,15.4004132 52.9585938,15.2764463 L52.9585938,14.8632231 L50.01875,14.8632231 L50.01875,15.2764463 C50.3914063,15.3590909 50.6398437,15.6896694 50.6398437,16.0202479 L50.6398437,20.235124 C50.6398437,22.0533058 49.853125,23.003719 48.1554687,23.003719 C46.540625,23.003719 45.7539062,22.0533058 45.7539062,20.5657025 L45.7539062,16.1855372 C45.7539062,15.6483471 45.9195312,15.3590909 46.3335938,15.235124 L46.3335938,14.8632231 L42.9796875,14.8632231 L42.9796875,15.2764463 L43.0210937,15.2764463 Z" id="Fill-1" fill="#0066AF" fill-rule="nonzero"></path>
            <path d="M53.7867188,15.2350826 C54.159375,15.3177273 54.4492188,15.5656612 54.4492188,16.0615289 L54.4492188,23.4995455 C54.4492188,23.830124 54.2007813,24.1193802 53.7867188,24.1607025 L53.7867188,24.5326033 L56.7679688,24.5326033 L56.7679688,24.1607025 C56.3953125,24.1193802 56.146875,23.7474793 56.146875,23.3755785 L56.146875,17.4251653 L62.9375,24.6978926 L63.93125,24.6978926 L63.93125,16.0202066 C63.93125,15.7722727 63.9726563,15.4003719 64.5523438,15.2350826 L64.5523438,14.8631818 L61.5710938,14.8631818 L61.5710938,15.2350826 C61.94375,15.276405 62.1921875,15.6483058 62.1921875,16.0615289 L62.1921875,20.813595 L56.6023438,14.8631818 L53.828125,14.8631818 L53.7867188,15.2350826 Z" id="Fill-3" fill="#0066AF" fill-rule="nonzero"></path>
            <path d="M65.3804688,15.2350826 C65.7945313,15.3177273 65.9601563,15.6069835 65.9601563,16.1854959 L65.9601563,23.4169008 C65.9601563,23.7474793 65.7945313,24.0780579 65.3804688,24.1607025 L65.3804688,24.5326033 L68.6929688,24.5326033 L68.6929688,24.1607025 C68.2375,24.0367355 68.1132812,23.6648347 68.1132812,23.2102893 L68.1132812,15.937562 C68.1132812,15.6069835 68.3203125,15.3177273 68.6929688,15.2350826 L68.6929688,14.8631818 L65.3804688,14.8631818 L65.3804688,15.2350826 Z" id="Fill-5" fill="#0066AF" fill-rule="nonzero"></path>
            <path d="M68.7758641,15.2350826 C69.1899266,15.3590496 69.4383641,15.6483058 69.6453953,16.1028512 L73.5789891,24.8218595 L74.6969578,24.8218595 L78.3821141,16.1441736 C78.5891453,15.6896281 78.8789891,15.276405 79.2516453,15.2350826 L79.2516453,14.8218595 L76.2289891,14.8218595 L76.2289891,15.1937603 C76.5188328,15.2350826 76.6430516,15.3590496 76.6430516,15.6069835 C76.6430516,15.7722727 76.6016453,15.937562 76.5188328,16.1441736 L74.2828953,21.4334298 L71.8399266,15.9788843 C71.7985203,15.8549174 71.7571141,15.7309504 71.7571141,15.6069835 C71.7571141,15.4003719 71.8813328,15.2350826 72.2539891,15.1937603 L72.2539891,14.8631818 L68.8172703,14.8631818 L68.8172703,15.2350826 L68.7758641,15.2350826 Z" id="Fill-7" fill="#0066AF" fill-rule="nonzero"></path>
            <path d="M79.665625,15.2350826 C80.1625,15.4003719 80.2453125,15.6896281 80.2453125,16.1441736 L80.2453125,23.2929339 C80.2453125,23.8714463 79.996875,24.0780579 79.665625,24.1607025 L79.665625,24.5326033 L86.9117187,24.5326033 L87.78125,22.1772314 L87.284375,22.1772314 C86.9945312,22.5904545 86.5804687,22.9210331 85.8765625,22.9210331 L82.3984375,22.9210331 L82.3984375,20.1937603 L86.0007812,20.1937603 C86.4976562,20.1937603 86.7046875,20.3590496 86.7875,20.7722727 L87.1601562,20.7722727 L87.1601562,18.045 L86.7875,18.045 C86.6632812,18.4169008 86.4148437,18.6235124 85.8351562,18.6235124 L82.3984375,18.6235124 L82.3984375,16.5160744 L85.5867187,16.5160744 C86.3320312,16.5160744 86.7875,16.6813636 87.11875,17.2185537 L87.6570312,17.2185537 L86.7460937,14.8631818 L79.665625,14.8631818 L79.665625,15.2350826 Z" id="Fill-9" fill="#0066AF" fill-rule="nonzero"></path>
            <path d="M88.3194898,15.2350826 C88.6921461,15.3177273 88.8991773,15.6069835 88.8991773,16.1028512 L88.8991773,23.4995455 C88.8991773,23.8714463 88.6921461,24.1193802 88.3194898,24.2020248 L88.3194898,24.5326033 L91.5905836,24.5326033 L91.5905836,24.2020248 C91.1351148,24.0780579 90.9694898,23.7474793 90.9694898,23.2516116 L90.9694898,16.4334298 L92.0046461,16.4334298 C93.0812086,16.4334298 93.6194898,16.722686 93.6194898,17.5491322 C93.6194898,18.4995455 92.8327711,18.7474793 91.7976148,18.7474793 L91.5491773,18.7474793 L91.5491773,20.1111157 C92.9983961,21.2268182 94.0749586,22.9623554 94.0749586,23.7474793 C94.0749586,24.0367355 93.9093336,24.1193802 93.6194898,24.2020248 L93.6194898,24.5739256 L97.1804273,24.5739256 L97.1804273,24.2433471 C96.5593336,24.0367355 96.2694898,22.2185537 94.8616773,20.8549174 C94.3233961,20.3177273 93.9921461,20.1111157 93.6608961,19.9045041 C95.0273023,19.5739256 95.7312086,18.7474793 95.7312086,17.4251653 C95.7312086,16.1854959 94.9444898,14.9045041 92.7913648,14.9045041 L88.3194898,14.9045041 L88.3194898,15.2350826 Z" id="Fill-11" fill="#0066AF" fill-rule="nonzero"></path>
            <path d="M97.0976977,21.3920661 L98.0086352,24.6978512 L98.3398852,24.6978512 L98.6297289,24.3259504 C99.2094164,24.5738843 100.120354,24.8218182 101.031291,24.8218182 C103.515666,24.8218182 104.343791,23.3755372 104.343791,21.8052893 C104.343791,21.0614876 103.971135,20.317686 103.515666,19.8631405 C102.439104,18.7887603 100.327385,18.2102479 99.7476977,17.5904132 C99.5406664,17.3838017 99.4992602,17.1771901 99.4992602,17.0532231 C99.4992602,16.64 99.8719164,16.1028099 100.700041,16.1028099 C102.066448,16.1028099 102.935979,17.1771901 103.391448,17.9209917 L103.929729,17.9209917 L103.557073,14.6978512 L103.225823,14.6978512 L102.853166,15.1110744 C102.397698,14.8631405 101.776604,14.532562 100.534416,14.532562 C98.3812914,14.532562 97.5117602,15.8961983 97.5117602,17.0945455 C97.5117602,17.7970248 97.7601977,18.4995041 98.2570727,18.9953719 C99.2508227,19.9871074 101.15551,20.4416529 101.942229,21.2267769 C102.273479,21.5160331 102.314885,21.8052893 102.314885,22.0532231 C102.314885,22.5490909 101.942229,23.1689256 100.865666,23.1689256 C99.7062914,23.1689256 98.3812914,22.425124 97.6773852,21.3094215 L97.0976977,21.3094215 L97.0976977,21.3920661 Z" id="Fill-13" fill="#0066AF" fill-rule="nonzero"></path>
            <path d="M104.840542,15.2350826 C105.254605,15.3177273 105.42023,15.6069835 105.42023,16.1854959 L105.42023,23.4169008 C105.42023,23.7474793 105.254605,24.0780579 104.840542,24.1607025 L104.840542,24.5326033 L108.153042,24.5326033 L108.153042,24.1607025 C107.697573,24.0367355 107.573355,23.6648347 107.573355,23.2102893 L107.573355,15.937562 C107.573355,15.6069835 107.780386,15.3177273 108.153042,15.2350826 L108.153042,14.8631818 L104.840542,14.8631818 L104.840542,15.2350826 Z" id="Fill-15" fill="#0066AF" fill-rule="nonzero"></path>
            <path d="M108.691241,15.2350826 C109.105303,15.3177273 109.312334,15.6483058 109.312334,16.0202066 L109.312334,23.3342562 C109.312334,23.7474793 109.105303,24.0367355 108.733061,24.1193802 L108.733061,24.491281 L113.080717,24.491281 C116.434209,24.491281 118.256498,22.5491322 118.256498,19.6565702 C118.256498,16.5573967 116.227178,14.8218595 113.121709,14.8218595 L108.733061,14.8218595 L108.733061,15.2350826 L108.691241,15.2350826 Z M112.749467,16.5160744 C114.777959,16.5160744 115.937334,17.7144215 115.937334,19.7392149 C115.937334,21.9292975 114.653741,22.9623554 112.500616,22.9623554 L111.465459,22.9623554 L111.465459,16.5160744 L112.749467,16.5160744 Z" id="Fill-17" fill="#0066AF" fill-rule="nonzero"></path>
            <path d="M118.711636,22.8383471 C118.214761,23.9127273 118.00773,24.1193388 117.635073,24.2019835 L117.635073,24.532562 L120.616737,24.532562 L120.616737,24.2019835 C120.285073,24.2019835 120.160855,24.0366942 120.160855,23.8300826 C120.160855,23.6647934 120.243667,23.4581818 120.32648,23.2928926 L120.823769,22.2185124 L124.881167,22.2185124 L125.419448,23.3342149 C125.502261,23.4995041 125.543667,23.6647934 125.543667,23.7887603 C125.543667,23.9953719 125.419448,24.1193388 125.046792,24.1606612 L125.046792,24.4912397 L128.483925,24.4912397 L128.483925,24.1606612 C128.028042,23.9540496 127.821011,23.6647934 127.61398,23.2515702 L123.473355,14.532562 L122.521011,14.532562 L118.711636,22.8383471 Z M124.136269,20.6895868 L121.568667,20.6895868 L122.810855,18.0036364 L124.136269,20.6895868 Z" id="Fill-19" fill="#0066AF" fill-rule="nonzero"></path>
            <path d="M128.607895,15.2350826 C129.021958,15.3177273 129.228989,15.6483058 129.228989,16.0202066 L129.228989,23.3342562 C129.228989,23.7474793 129.021958,24.0367355 128.649302,24.1193802 L128.649302,24.491281 L132.996958,24.491281 C136.350864,24.491281 138.172739,22.5491322 138.172739,19.6565702 C138.172739,16.5573967 136.143833,14.8218595 133.038364,14.8218595 L128.649302,14.8218595 L128.649302,15.2350826 L128.607895,15.2350826 Z M132.665708,16.5160744 C134.694614,16.5160744 135.853989,17.7144215 135.853989,19.7392149 C135.853989,21.9292975 134.569981,22.9623554 132.41727,22.9623554 L131.382114,22.9623554 L131.382114,16.5160744 L132.665708,16.5160744 Z" id="Fill-21" fill="#0066AF" fill-rule="nonzero"></path>
            <path d="M150.760239,28.045 C151.008677,28.045 151.174302,28.2102893 151.174302,28.4995455 L151.174302,29.7392149 C150.801645,29.6152479 150.346177,29.4499587 149.849302,29.4499587 C148.524302,29.4499587 147.530552,30.4003719 147.530552,31.8879752 C147.530552,33.2929339 148.441075,34.2433471 149.64227,34.2433471 C150.180552,34.2433471 150.760239,33.9954132 151.132481,33.6235124 L151.132481,34.2433471 L151.422739,34.2433471 C151.960606,33.830124 152.499302,33.5821901 152.913364,33.3755785 L152.913364,33.0863223 C152.62352,33.0863223 152.499302,32.9210331 152.499302,32.5491322 L152.499302,26.6813636 L152.209458,26.6813636 C151.878208,27.0119421 151.339512,27.383843 150.718419,27.7144215 L150.718419,28.045 L150.760239,28.045 Z M151.174302,32.6730992 C150.92545,32.8797107 150.511387,33.1276446 150.097325,33.1276446 C149.476231,33.1276446 148.97977,32.6730992 148.97977,31.7640083 C148.97977,30.937562 149.352427,30.4830165 150.056333,30.4830165 C150.511387,30.4830165 150.843052,30.6483058 151.174302,30.937562 L151.174302,32.6730992 Z" id="Fill-23" fill="#0066AF" fill-rule="nonzero"></path>
            <path d="M158.171709,32.3840496 C157.799467,32.7555372 157.302178,33.1687603 156.640092,33.1687603 C156.059991,33.1687603 155.687334,32.838595 155.522123,32.3840496 L158.917436,31.4749587 L158.834623,31.1026446 C158.544366,31.0617355 158.544366,30.6067769 157.964678,30.0286777 C157.716241,29.7803306 157.261186,29.4497521 156.433061,29.4497521 C155.149053,29.4497521 154.031084,30.2761983 154.031084,31.8881818 C154.031084,32.342314 154.238116,34.284876 156.433061,34.284876 C157.550616,34.284876 158.21353,33.788595 158.875616,33.0452066 L158.171709,32.3840496 Z M155.397905,31.4749587 C155.397905,30.9790909 155.729155,30.4001653 156.391241,30.4001653 C156.764311,30.4001653 157.012334,30.6067769 157.219366,30.9377686 L155.397905,31.4749587 Z" id="Fill-25" fill="#0066AF" fill-rule="nonzero"></path>
            <path d="M169.268916,31.7226446 C168.73022,32.5077686 167.984908,33.0449587 166.949752,33.0449587 C165.459541,33.0449587 164.507197,31.8466116 164.507197,30.3180992 C164.507197,28.7061157 165.666572,27.9209917 166.908759,27.9209917 C167.736884,27.9209917 168.73022,28.2928926 169.310322,29.3259504 L169.724384,29.3259504 L169.310322,26.9292562 L169.061884,26.9292562 L168.813033,27.2185124 C168.150947,26.9292562 167.447041,26.7639669 166.74272,26.7639669 C165.376728,26.7639669 164.507197,27.2598347 164.051314,27.7557025 C163.306416,28.4995041 162.933345,29.408595 162.933345,30.4829752 C162.933345,31.5577686 163.265009,32.5908264 164.051314,33.3755372 C164.631416,33.9540496 165.459541,34.3259504 166.659908,34.3259504 C168.233759,34.3259504 169.351314,33.6647934 170.221259,32.301157 L169.268916,31.7226446 Z" id="Fill-27" fill="#0066AF" fill-rule="nonzero"></path>
            <path d="M173.864844,30.4418182 C174.610156,30.4418182 175.148438,31.1856198 175.148438,32.0529752 C175.148438,32.8794215 174.527344,33.2926446 173.90625,33.2926446 C173.078125,33.2926446 172.622656,32.4661983 172.622656,31.7228099 C172.622656,30.937686 173.160937,30.4418182 173.864844,30.4418182 M173.989062,29.4087603 C172.415625,29.4087603 171.297656,30.4000826 171.297656,31.8463636 C171.297656,33.1277686 172.125781,34.3257025 173.782031,34.3257025 C175.23125,34.3257025 176.514844,33.4170248 176.514844,31.8463636 C176.514844,30.5244628 175.5625,29.4087603 173.989062,29.4087603" id="Fill-29" fill="#0066AF" fill-rule="nonzero"></path>
            <path d="M177.632647,28.0863636 C177.881498,28.0863636 178.046709,28.2103306 178.046709,28.4995868 L178.046709,33.3342975 C178.046709,33.664876 177.922491,33.8301653 177.632647,33.8714876 L177.632647,34.1194215 L179.868584,34.1194215 L179.868584,33.8714876 C179.578741,33.8301653 179.454522,33.664876 179.454522,33.2516529 L179.454522,26.7227273 L179.206498,26.7227273 C178.792436,27.0946281 178.253741,27.5078512 177.674467,27.7971074 L177.674467,28.0863636 L177.632647,28.0863636 Z" id="Fill-31" fill="#0066AF" fill-rule="nonzero"></path>
            <path d="M183.512417,30.4418182 C184.25773,30.4418182 184.796425,31.1856198 184.796425,32.0529752 C184.796425,32.8794215 184.175331,33.2926446 183.554237,33.2926446 C182.726112,33.2926446 182.27023,32.4661983 182.27023,31.7228099 C182.27023,30.937686 182.808511,30.4418182 183.512417,30.4418182 M183.636636,29.4087603 C182.063198,29.4087603 180.94523,30.4000826 180.94523,31.8463636 C180.94523,33.1277686 181.814761,34.3257025 183.429605,34.3257025 C184.878823,34.3257025 186.162417,33.4170248 186.162417,31.8463636 C186.121011,30.5244628 185.168667,29.4087603 183.636636,29.4087603" id="Fill-33" fill="#0066AF" fill-rule="nonzero"></path>
            <path d="M187.114844,30.772314 C187.404688,30.772314 187.528906,30.9376033 187.528906,31.1855372 L187.528906,33.3342975 C187.528906,33.5822314 187.363281,33.8301653 187.114844,33.8714876 L187.114844,34.1194215 L189.309375,34.1194215 L189.309375,33.8714876 C189.019531,33.8301653 188.895313,33.5822314 188.895313,33.2516529 L188.895313,30.9789256 C189.350781,30.6483471 189.640625,30.5657025 189.930469,30.5657025 C190.385938,30.5657025 190.592969,30.8549587 190.592969,31.2681818 L190.592969,33.2929752 C190.592969,33.5409091 190.510156,33.8301653 190.220313,33.9128099 L190.220313,34.1607438 L192.373438,34.1607438 L192.373438,33.9128099 C192.083594,33.8714876 191.959375,33.5822314 191.959375,33.3342975 L191.959375,30.9789256 C192.332031,30.6896694 192.704688,30.5243802 193.035938,30.5243802 C193.45,30.5243802 193.698438,30.772314 193.698438,31.3095041 L193.698438,33.2516529 C193.698438,33.5822314 193.574219,33.788843 193.284375,33.8301653 L193.284375,34.0780992 L195.478906,34.0780992 L195.478906,33.8714876 C195.189063,33.788843 195.064844,33.5409091 195.064844,33.2929752 L195.064844,30.896281 C195.064844,30.4417355 194.857813,29.4913223 193.574219,29.4913223 C192.870313,29.4913223 192.373438,29.7392562 191.835156,30.1938017 C191.628125,29.8219008 191.214063,29.4913223 190.551563,29.4913223 C189.930469,29.4913223 189.433594,29.7392562 188.936719,30.1524793 L188.936719,29.4913223 L188.646875,29.4913223 C188.274219,29.8632231 187.777344,30.235124 187.197656,30.5243802 L187.197656,30.772314 L187.114844,30.772314 Z" id="Fill-35" fill="#0066AF" fill-rule="nonzero"></path>
            <path d="M196.43125,28.045 C196.638281,28.045 196.845313,28.2102893 196.845313,28.4582231 L196.845313,32.6730992 C196.845313,32.9210331 196.7625,33.0863223 196.555469,33.1276446 L196.555469,33.3755785 C197.342188,33.9540909 198.253125,34.2846694 199.246875,34.2846694 C200.820312,34.2846694 201.896875,33.2516116 201.896875,31.7640083 C201.896875,30.5243388 201.110156,29.4499587 199.785156,29.4499587 C199.08125,29.4499587 198.667188,29.6565702 198.170313,29.9871488 L198.170313,26.722686 L197.921875,26.722686 C197.549219,27.0945868 197.135156,27.383843 196.43125,27.7970661 L196.43125,28.045 Z M198.211719,30.9788843 C198.501563,30.7722727 198.874219,30.5243388 199.4125,30.5243388 C199.950781,30.5243388 200.489062,31.0202066 200.489062,31.8466529 C200.489062,32.5904545 200.116406,33.2516116 199.246875,33.2516116 C198.667188,33.2516116 198.253125,32.8797107 198.253125,32.3425207 L198.211719,30.9788843 Z" id="Fill-37" fill="#0066AF" fill-rule="nonzero"></path>
            <path d="M203.139145,30.8134711 C203.387583,30.8134711 203.553208,31.0200826 203.553208,31.2684298 L203.553208,33.2928099 C203.553208,33.5820661 203.428989,33.7886777 203.139145,33.8713223 L203.139145,34.1192562 L205.333677,34.1192562 L205.333677,33.8713223 C205.085239,33.8304132 204.919614,33.6238017 204.919614,33.3345455 L204.919614,29.4915702 L204.671177,29.4915702 C204.174302,29.9870248 203.63602,30.276281 203.139145,30.5655372 L203.139145,30.8134711 Z M203.304356,27.8382645 C203.553208,28.0861983 203.801645,28.2928099 204.050083,28.5824793 L204.29852,28.5824793 C204.546544,28.2928099 204.753575,28.0861983 205.002427,27.8795868 L205.002427,27.5903306 C204.753575,27.383719 204.505552,27.1361983 204.29852,26.8878512 L203.96727,26.8878512 C203.760239,27.1361983 203.511388,27.3428099 203.221958,27.5903306 L203.221958,27.8382645 L203.304356,27.8382645 Z" id="Fill-39" fill="#0066AF" fill-rule="nonzero"></path>
            <g id="Group-43" transform="translate(206.617188, 29.284711)">
                <g id="Fill-41-Clipped">
                    <mask id="mask-2" fill="white">
                        <use xlink:href="#path-1"></use>
                    </mask>
                    <g id="path-1"></g>
                    <path d="M0.869614062,1.69421488 C1.07664531,1.28099174 1.53211406,1.11570248 2.11180156,1.11570248 C2.60867656,1.11570248 2.93992656,1.36363636 2.93992656,1.73553719 C1.73914531,1.81818182 0.911020312,2.02479339 0.455551562,2.47933884 C0.165707812,2.76859504 0.0414890625,3.09917355 0.0414890625,3.51239669 C0.0414890625,4.4214876 0.6207625,5.04132231 1.65591875,5.04132231 C2.2770125,5.04132231 2.85711406,4.87603306 3.43680156,4.58677686 C3.56102031,4.79338843 3.9332625,4.95867769 4.26492656,4.95867769 C4.63758281,4.95867769 4.96841875,4.87603306 5.34148906,4.66942149 L5.13445781,3.96694215 C5.01023906,4.00826446 4.92742656,4.00826446 4.88602031,4.00826446 C4.80320781,4.00826446 4.72039531,3.96694215 4.67898906,3.92561983 C4.30633281,3.55371901 4.63758281,1.48760331 3.9332625,0.785123967 C3.64383281,0.495867769 3.14695781,0.289256198 2.36023906,0.289256198 C1.36648906,0.289256198 0.703989062,0.537190083 0.289926562,0.743801653 C0.41373125,1.11570248 0.496957812,1.36363636 0.6207625,1.85950413 L0.869614062,1.69421488 Z M3.14695781,3.67768595 C2.691075,3.88429752 2.2770125,4.00826446 1.98758281,4.00826446 C1.61492656,4.00826446 1.36648906,3.80165289 1.36648906,3.47107438 C1.36648906,2.9338843 2.06998125,2.76859504 3.02273906,2.6446281 L3.14695781,3.67768595 Z" id="Fill-41" fill="#0066AF" fill-rule="nonzero" mask="url(#mask-2)"></path>
                </g>
            </g>
            <path d="M150.760239,21.3509091 C150.056333,22.3839669 149.062169,23.0864463 147.696177,23.0864463 C145.749669,23.0864463 144.507481,21.5161983 144.507481,19.491405 C144.507481,17.3839669 145.99852,16.3509091 147.65477,16.3509091 C148.772739,16.3509091 150.056333,16.8467769 150.843052,18.2104132 L151.381333,18.2104132 L150.843052,15.028595 L150.470395,15.028595 L150.139145,15.4004959 C149.31102,14.9872727 148.358677,14.8219835 147.447739,14.8219835 C145.625864,14.8219835 144.549302,15.4831405 143.886388,16.1442975 C142.934458,17.0947107 142.437169,18.2930579 142.437169,19.7393388 C142.437169,21.1442975 142.893052,22.4666116 143.928208,23.5409917 C144.714513,24.3261157 145.791489,24.8219835 147.364927,24.8219835 C149.435239,24.8219835 150.92545,23.9542149 152.002427,22.1360331 L150.760239,21.3509091 Z" id="Fill-44" fill="#000000" fill-rule="nonzero"></path>
            <path d="M152.45773,22.8383471 C151.960855,23.871405 151.753823,24.0780165 151.422573,24.1606612 L151.422573,24.4912397 L154.321011,24.4912397 L154.321011,24.1606612 C153.989761,24.1606612 153.865542,23.9953719 153.865542,23.7887603 C153.865542,23.6234711 153.948769,23.4168595 154.031167,23.2928926 L154.528042,22.2598347 L158.461636,22.2598347 L158.999917,23.3755372 C159.08273,23.5408264 159.12455,23.7061157 159.12455,23.8300826 C159.12455,24.0366942 158.999917,24.1606612 158.668667,24.2019835 L158.668667,24.532562 L161.981167,24.532562 L161.981167,24.2019835 C161.525698,24.0366942 161.318667,23.7061157 161.153042,23.2928926 L157.136636,14.8631405 L156.226112,14.8631405 L152.45773,22.8383471 Z M157.716323,20.7309091 L155.231948,20.7309091 L156.474136,18.1276033 L157.716323,20.7309091 Z" id="Fill-46" fill="#000000" fill-rule="nonzero"></path>
            <path d="M159.786719,17.3839256 L160.242188,17.3839256 C160.573438,16.9293802 160.9875,16.6814463 161.484375,16.6814463 L163.761719,16.6814463 L163.761719,23.3343388 C163.761719,23.7062397 163.554688,24.0368182 163.182031,24.0781405 L163.182031,24.4500413 L166.411719,24.4500413 L166.411719,24.0781405 C165.997656,23.9954959 165.832031,23.623595 165.832031,23.2516942 L165.832031,16.640124 L167.985156,16.640124 C168.60625,16.640124 168.978906,16.8054132 169.310156,17.3426033 L169.807031,17.3426033 L168.9375,15.069876 L160.65625,15.069876 L159.786719,17.3839256 Z" id="Fill-48" fill="#000000" fill-rule="nonzero"></path>
            <path d="M169.641323,19.6980165 C169.641323,22.5492562 171.546425,24.8219835 174.775698,24.8219835 C177.425698,24.8219835 180.324136,23.2517355 180.324136,19.7393388 C180.324136,17.0533884 178.336636,14.7806612 175.189761,14.7806612 C172.042886,14.7806612 169.641323,16.8467769 169.641323,19.6980165 M174.98273,16.3095868 C176.929237,16.3095868 178.171425,18.1690909 178.171425,20.2352066 C178.171425,22.26 176.63898,23.3343802 174.858925,23.3343802 C172.829605,23.3343802 171.67023,21.4335537 171.67023,19.367438 C171.711636,17.6732231 173.078042,16.3095868 174.98273,16.3095868" id="Fill-50" fill="#000000" fill-rule="nonzero"></path>
            <path d="M180.821011,15.4416942 C181.193667,15.5656612 181.400698,15.813595 181.400698,16.2268182 L181.400698,23.2516116 C181.400698,23.7888017 181.193667,24.0780579 180.821011,24.1607025 L180.821011,24.5326033 L187.777261,24.5326033 L188.605386,22.2185537 L188.149917,22.2185537 C187.942886,22.6317769 187.57023,23.0036777 186.824917,23.0036777 L183.512417,23.0036777 L183.512417,16.4334298 C183.512417,15.813595 183.802261,15.5656612 184.092105,15.5243388 L184.092105,15.1937603 L180.862831,15.1937603 L180.862831,15.4416942 L180.821011,15.4416942 Z" id="Fill-52" fill="#000000" fill-rule="nonzero"></path>
            <path d="M188.646958,15.4830579 C189.0192,15.5657025 189.226231,15.8136364 189.226231,16.3921488 L189.226231,23.4169421 C189.226231,23.7061983 189.06102,24.0367769 188.688364,24.1607438 L188.688364,24.5326446 L191.876645,24.5326446 L191.876645,24.1607438 C191.421177,24.0367769 191.296544,23.664876 191.296544,23.2516529 L191.296544,16.1855372 C191.296544,15.8549587 191.503575,15.6070248 191.835239,15.5243802 L191.835239,15.1524793 L188.646958,15.1524793 L188.646958,15.4830579 Z" id="Fill-54" fill="#000000" fill-rule="nonzero"></path>
            <path d="M200.778906,21.3509091 C200.075,22.3839669 199.08125,23.0864463 197.714844,23.0864463 C195.76875,23.0864463 194.485156,21.5161983 194.485156,19.491405 C194.485156,17.3839669 195.975781,16.3509091 197.632031,16.3509091 C198.75,16.3509091 200.033594,16.8467769 200.820312,18.2104132 L201.358594,18.2104132 L200.820312,15.028595 L200.447656,15.028595 L200.116406,15.4004959 C199.246875,14.9872727 198.335938,14.8219835 197.425,14.8219835 C195.603125,14.8219835 194.526563,15.4831405 193.864062,16.1442975 C192.911719,17.0947107 192.414844,18.2930579 192.414844,19.7393388 C192.414844,21.1442975 192.870313,22.4666116 193.905469,23.5409917 C194.692187,24.3261157 195.76875,24.8219835 197.342188,24.8219835 C199.4125,24.8219835 200.903125,23.9542149 201.979688,22.1360331 L200.778906,21.3509091 Z" id="Fill-56" fill="#000000" fill-rule="nonzero"></path>
            <path d="M202.476397,22.8383471 C201.979936,23.871405 201.772905,24.0780165 201.441241,24.1606612 L201.441241,24.4912397 L204.339678,24.4912397 L204.339678,24.1606612 C204.008428,24.1606612 203.884209,23.9953719 203.884209,23.7887603 C203.884209,23.6234711 203.967436,23.4168595 204.008428,23.2928926 L204.505303,22.2598347 L208.438897,22.2598347 L208.977178,23.3755372 C209.059991,23.5408264 209.101397,23.7061157 209.101397,23.8300826 C209.101397,24.0366942 208.977178,24.1606612 208.645928,24.2019835 L208.645928,24.532562 L211.958428,24.532562 L211.958428,24.2019835 C211.503373,24.0366942 211.296342,23.7061157 211.089311,23.2928926 L207.072905,14.8631405 L206.161553,14.8631405 L202.476397,22.8383471 Z M207.734991,20.7309091 L205.250616,20.7309091 L206.451811,18.1276033 L207.734991,20.7309091 Z" id="Fill-58" fill="#000000" fill-rule="nonzero"></path>
            <polygon id="Fill-60" fill="#000000" fill-rule="nonzero" points="178.626563 11.4335537 176.017969 11.4335537 174.278906 14.2434711 175.89375 14.2434711"></polygon>
            <path d="M32.1313328,5.56570248 C32.8766453,9.1607438 33.4563328,12.2599174 33.8703953,14.8632231 C32.6282078,14.9871901 31.6758641,16.0615702 31.6758641,17.3012397 C31.6758641,18.664876 32.7938328,19.7805785 34.1602391,19.7805785 C34.2844578,19.7805785 34.4086766,19.7805785 34.4914891,19.7392562 C34.5743016,20.5657025 34.6157078,21.3095041 34.6157078,22.0119835 C34.6157078,27.3838843 31.5516453,32.0533058 27.0797703,34.45 C25.0094578,35.5657025 19.1711766,37.0533058 18.0532078,40.9376033 C16.9352391,37.0533058 11.0969578,35.5657025 9.02664531,34.45 C4.55477031,32.0533058 1.49070781,27.3838843 1.49070781,22.0119835 C1.49070781,21.3095041 1.53211406,20.5657025 1.57352031,19.7392562 C1.69773906,19.7392562 1.82195781,19.7805785 1.94617656,19.7805785 C3.31258281,19.7805785 4.43055156,18.664876 4.43055156,17.3012397 C4.43055156,16.0202479 3.47820781,14.9871901 2.23602031,14.8632231 C2.65008281,12.2599174 3.27117656,9.20206612 3.97508281,5.56570248 L32.1313328,5.56570248 Z" id="Fill-62" fill="#FFFFFF" fill-rule="nonzero"></path>
            <path d="M32.1313328,5.56570248 C32.8766453,9.1607438 33.4563328,12.2599174 33.8703953,14.8632231 C32.6282078,14.9871901 31.6758641,16.0615702 31.6758641,17.3012397 C31.6758641,18.664876 32.7938328,19.7805785 34.1602391,19.7805785 C34.2844578,19.7805785 34.4086766,19.7805785 34.4914891,19.7392562 C34.5743016,20.5657025 34.6157078,21.3095041 34.6157078,22.0119835 C34.6157078,27.3838843 31.5516453,32.0533058 27.0797703,34.45 C25.0094578,35.5657025 19.1711766,37.0533058 18.0532078,40.9376033 C16.9352391,37.0533058 11.0969578,35.5657025 9.02664531,34.45 C4.55477031,32.0533058 1.49070781,27.3838843 1.49070781,22.0119835 C1.49070781,21.3095041 1.53211406,20.5657025 1.57352031,19.7392562 C1.69773906,19.7392562 1.82195781,19.7805785 1.94617656,19.7805785 C3.31258281,19.7805785 4.43055156,18.664876 4.43055156,17.3012397 C4.43055156,16.0202479 3.47820781,14.9871901 2.23602031,14.8632231 C2.65008281,12.2599174 3.27117656,9.20206612 3.97508281,5.56570248 L32.1313328,5.56570248 Z" id="Fill-64" fill="#FFFFFF" fill-rule="nonzero"></path>
            <path d="M0.5796875,16.1856198 C1.20078125,12.3426446 1.94609375,8.49966942 2.69140625,4.65669421 C6.459375,2.46661157 11.925,4.78066116 18.053125,4.78066116 C24.015625,4.78066116 29.48125,2.42528926 33.2078125,4.49140496 C33.9117188,7.92115702 34.5742188,11.3509091 35.1539063,14.7806612 L35.3609375,16.1856198 C34.5742188,16.2682645 32.959375,16.1856198 32.959375,17.4666116 C32.959375,18.0864463 33.45625,18.582314 34.0773438,18.582314 C34.5742188,18.582314 35.609375,18.3757025 35.6507813,18.3757025 C35.775,19.6566942 35.8578125,20.937686 35.8578125,22.2186777 C35.8578125,28.1277686 32.5039063,33.2104132 27.6179688,35.8550413 C22.4835938,38.582314 21.0757813,38.1277686 19.7921875,40.5657851 C19.4195313,41.2682645 19.046875,42.2186777 18.6328125,43.582314 C18.4257813,44.2847934 17.390625,44.2430579 17.1835938,43.5409917 C16.7695313,42.1769421 16.396875,41.2269421 16.0242188,40.5240496 C14.7820313,38.1690909 13.3328125,38.582314 8.23984375,35.8550413 C3.35390625,33.2104132 0,28.1277686 0,22.2186777 C0,20.937686 0.12421875,19.6566942 0.20703125,18.3757025 C0.28984375,18.3757025 1.325,18.582314 1.821875,18.582314 C2.44296875,18.582314 2.93984375,18.0864463 2.93984375,17.4666116 C2.98125,16.1856198 1.36640625,16.3095868 0.5796875,16.1856198" id="Fill-66" fill="#1A1107" fill-rule="nonzero"></path>
            <path d="M32.4210523,0.483140496 C32.4210523,0.483140496 32.5038648,0.896363636 32.5866773,1.47487603 C28.8601148,-0.0540495868 23.7257398,2.09471074 18.0530836,2.09471074 C12.2148023,2.09471074 6.99761484,0.0285950413 3.27105234,1.6814876 C3.35386484,1.10297521 3.43667734,0.648429752 3.43667734,0.648429752 C7.16323984,-0.880495868 12.2562086,1.18561983 18.0116773,1.18561983 C23.6429273,1.18561983 28.7358961,-0.921818182 32.4210523,0.483140496" id="Fill-68" fill="#1A1107" fill-rule="nonzero"></path>
            <polygon id="Fill-70" fill="#FFFFFF" fill-rule="nonzero" points="32.1313328 5.56570248 19.5024266 5.56570248 17.9703953 5.60702479 16.4383641 5.56570248 3.89227031 5.60702479"></polygon>
            <path d="M2.69144766,4.69789256 C6.45941641,2.50780992 11.9250414,4.78053719 18.0945727,4.78053719 C24.0570727,4.78053719 29.5226977,2.38384298 33.2492602,4.49128099 C33.2492602,4.49128099 32.6695727,1.47475207 32.6281664,1.47475207 C28.9016039,-0.0954958678 23.7258227,2.09458678 18.0945727,2.09458678 C12.2562914,2.09458678 6.99769766,0.0284710744 3.27113516,1.68136364 C3.35394766,1.72268595 2.69144766,4.69789256 2.69144766,4.69789256" id="Fill-72" fill="#F8BB00" fill-rule="nonzero"></path>
            <path d="M3.35398906,29.0782645 L32.6282078,29.1604959 C31.3032078,31.392314 29.3571141,33.2104959 27.0383641,34.4501653 C24.9680516,35.5654545 19.1297703,37.0534711 18.0118016,40.8964463 C16.8938328,37.0117355 11.0555516,35.5245455 8.98523906,34.4501653 C6.66648906,33.2104959 4.67898906,31.3509917 3.35398906,29.0782645" id="Fill-74" fill="#F8BB00" fill-rule="nonzero"></path>
            <path d="M4.34769766,17.6319008 L31.6758227,17.6319008 C31.8414477,18.9128926 32.8766039,19.8219835 34.1187914,19.8219835 C34.2430102,19.8219835 34.3672289,19.8219835 34.4500414,19.7806612 C34.5328539,20.6071074 34.5742602,21.3509091 34.5742602,22.0533884 C34.5742602,24.6566942 33.8703539,27.0947107 32.6281664,29.1604132 L3.39535391,29.1604132 C2.15316641,27.0533884 1.44926016,24.6566942 1.44926016,22.0533884 C1.44926016,21.3509091 1.49066641,20.6071074 1.53207266,19.7806612 C1.65629141,19.7806612 1.78051016,19.8219835 1.90472891,19.8219835 C3.18832266,19.8219835 4.22347891,18.8302479 4.34769766,17.6319008" id="Fill-76" fill="#FFFFFF" fill-rule="nonzero"></path>
            <path d="M4.34769766,17.6730579 L4.34769766,17.3424793 C4.34769766,16.0614876 3.39535391,15.0284298 2.15316641,14.9044628 C2.56722891,12.301157 3.22972891,8.95404959 3.97504141,5.35900826 L32.0484789,5.35900826 C32.7937914,8.95404959 33.4562914,12.2598347 33.8703539,14.8631405 C32.6281664,14.9871074 31.6758227,16.0614876 31.6758227,17.301157 L31.6758227,17.6317355 C31.5930102,17.6730579 4.34769766,17.6730579 4.34769766,17.6730579" id="Fill-78" fill="#0066AF" fill-rule="nonzero"></path>
            <polygon id="Fill-80" fill="#1A1107" fill-rule="nonzero" points="30.7648023 17.6319008 30.8062086 20.3178512 19.2952711 20.3178512 19.2952711 41.1856198 16.6038648 41.1856198 16.6038648 20.3178512 5.21714609 20.3178512 5.21714609 17.6319008 16.6038648 17.6319008 16.6038648 13.2517355 9.64761484 13.2517355 9.64761484 10.6071074 16.6038648 10.6071074 16.6038648 5.23520661 19.2952711 5.23520661 19.2952711 10.6071074 26.4171461 10.6071074 26.4171461 13.2517355 19.2952711 13.2517355 19.2952711 17.6319008"></polygon>
            <path d="M5.01023906,2.25991736 L5.13445781,2.21859504 C5.13445781,2.13595041 5.09305156,2.0946281 5.05164531,2.05330579 C5.01023906,2.01198347 4.96883281,1.97066116 4.92742656,1.92933884 C4.88602031,1.88801653 4.84461406,1.88801653 4.80320781,1.88801653 L4.63758281,1.88801653 C4.59617656,1.88801653 4.55477031,1.92933884 4.51336406,1.92933884 C4.47195781,1.97066116 4.43055156,1.97066116 4.38914531,2.01198347 C4.34773906,2.05330579 4.34773906,2.0946281 4.30633281,2.13595041 L4.30633281,2.30123967 C4.30633281,2.34256198 4.34773906,2.42520661 4.34773906,2.46652893 C4.38914531,2.50785124 4.38914531,2.54917355 4.43055156,2.54917355 C4.47195781,2.54917355 4.51336406,2.59049587 4.55477031,2.59049587 L4.67898906,2.59049587 L4.80320781,2.59049587 C4.84461406,2.59049587 4.88602031,2.59049587 4.92742656,2.63181818 C4.96883281,2.63181818 5.01023906,2.6731405 5.01023906,2.6731405 C5.05164531,2.71446281 5.05164531,2.71446281 5.05164531,2.79710744 L5.05164531,2.92107438 C5.05164531,2.96239669 5.01023906,2.96239669 5.01023906,3.00371901 C4.96883281,3.04504132 4.96883281,3.04504132 4.92742656,3.04504132 C4.88602031,3.04504132 4.88602031,3.08636364 4.84461406,3.08636364 L4.72039531,3.08636364 C4.67898906,3.08636364 4.63758281,3.08636364 4.59617656,3.04504132 C4.55477031,3.00371901 4.55477031,3.00371901 4.51336406,2.96239669 C4.47195781,2.92107438 4.47195781,2.87975207 4.47195781,2.83842975 L4.34773906,2.87975207 C4.34773906,2.96239669 4.38914531,3.04504132 4.43055156,3.08636364 C4.47195781,3.12768595 4.51336406,3.16900826 4.55477031,3.21033058 C4.59617656,3.25165289 4.63758281,3.25165289 4.72039531,3.25165289 L4.88602031,3.25165289 C4.92742656,3.25165289 4.96883281,3.21033058 5.01023906,3.21033058 C5.05164531,3.16900826 5.09305156,3.16900826 5.13445781,3.12768595 C5.17586406,3.08636364 5.17586406,3.04504132 5.21727031,3.00371901 L5.21727031,2.79710744 C5.21727031,2.71446281 5.17586406,2.6731405 5.17586406,2.63181818 C5.13445781,2.59049587 5.13445781,2.54917355 5.09305156,2.54917355 C5.05164531,2.50785124 5.01023906,2.50785124 4.96883281,2.50785124 C4.92742656,2.50785124 4.88602031,2.50785124 4.84461406,2.46652893 L4.72039531,2.46652893 L4.59617656,2.46652893 C4.55477031,2.46652893 4.55477031,2.42520661 4.51336406,2.42520661 C4.47195781,2.3838843 4.47195781,2.3838843 4.47195781,2.34256198 L4.47195781,2.21859504 C4.47195781,2.17727273 4.51336406,2.17727273 4.51336406,2.13595041 C4.51336406,2.13595041 4.55477031,2.0946281 4.59617656,2.0946281 C4.63758281,2.0946281 4.63758281,2.0946281 4.67898906,2.05330579 C4.76180156,2.05330579 4.80320781,2.05330579 4.88602031,2.0946281 C4.92742656,2.0946281 4.96883281,2.17727273 5.01023906,2.25991736" id="Fill-82" fill="#1A1107" fill-rule="nonzero"></path>
            <path d="M5.67257344,1.76396694 L5.34132344,3.12760331 L5.50694844,3.12760331 L5.58976094,2.71438017 L6.04522969,2.67305785 L6.16944844,3.08628099 L6.33507344,3.08628099 L5.83819844,1.76396694 L5.67257344,1.76396694 Z M5.63116719,2.54909091 L5.75538594,1.9292562 L5.96241719,2.54909091 L5.63116719,2.54909091 Z" id="Fill-84" fill="#1A1107" fill-rule="nonzero"></path>
            <path d="M6.50069844,1.72280992 L6.50069844,3.08644628 L6.62491719,3.08644628 L6.62491719,2.5492562 L6.95616719,2.5492562 C7.08038594,2.5492562 7.16319844,2.50793388 7.20460469,2.46661157 C7.24601094,2.38396694 7.28741719,2.30132231 7.28741719,2.17735537 C7.28741719,2.05338843 7.24601094,1.9707438 7.20460469,1.88809917 C7.16319844,1.80545455 7.08038594,1.76413223 6.95616719,1.76413223 L6.50069844,1.76413223 L6.50069844,1.72280992 Z M6.62491719,2.38396694 L6.62491719,1.88809917 L6.91476094,1.88809917 C6.99757344,1.88809917 7.03897969,1.92942149 7.08038594,1.9707438 C7.12179219,2.01206612 7.12179219,2.05338843 7.12179219,2.13603306 C7.12179219,2.21867769 7.12179219,2.26 7.08038594,2.34264463 C7.03897969,2.38396694 6.99757344,2.38396694 6.91476094,2.38396694 L6.62491719,2.38396694 Z" id="Fill-86" fill="#1A1107" fill-rule="nonzero"></path>
            <polygon id="Fill-88" fill="#1A1107" fill-rule="nonzero" points="7.53580873 1.76396694 7.49444844 3.08628099 7.61852932 3.08628099 7.65988961 1.76396694"></polygon>
            <polygon id="Fill-90" fill="#1A1107" fill-rule="nonzero" points="7.99136484 1.76396694 7.86714609 3.12760331 8.61245859 3.16892562 8.65386484 3.00363636 8.03277109 2.96231405 8.07417734 2.5077686 8.65386484 2.54909091 8.65386484 2.42512397 8.07417734 2.34247934 8.11558359 1.9292562 8.73667734 1.97057851 8.73667734 1.84661157"></polygon>
            <polygon id="Fill-92" fill="#1A1107" fill-rule="nonzero" points="8.98507344 1.84669421 8.81944844 3.21033058 8.94366719 3.21033058 9.06788594 2.13595041 9.52335469 3.25165289 9.68897969 3.29297521 9.81319844 1.92933884 9.68897969 1.92933884 9.56476094 3.00371901 9.10929219 1.88801653"></polygon>
            <polygon id="Fill-94" fill="#1A1107" fill-rule="nonzero" points="10.3516039 2.17719008 10.1859789 3.37553719 10.3101977 3.37553719 10.4758227 2.17719008 10.8484789 2.25983471 10.8484789 2.09454545 10.0203539 1.97057851 9.97894766 2.13586777"></polygon>
            <polygon id="Fill-96" fill="#1A1107" fill-rule="nonzero" points="11.0139615 2.09466942 10.8485203 3.45830579 10.9726012 3.45830579 11.1794027 2.13599174"></polygon>
            <path d="M11.7179273,2.21855372 L11.1382398,3.49954545 L11.2624586,3.54086777 L11.4280836,3.16896694 L11.8835523,3.25161157 L11.9249586,3.66483471 L12.0905836,3.70615702 L11.8421461,2.30119835 L11.7179273,2.21855372 Z M11.5108961,2.96235537 L11.7593336,2.38384298 L11.8421461,3.045 L11.5108961,2.96235537 Z" id="Fill-98" fill="#1A1107" fill-rule="nonzero"></path>
            <path d="M13.2085937,2.42516529 L12.5875,3.70615702 L12.753125,3.74747934 L12.91875,3.37557851 L13.3742187,3.45822314 L13.415625,3.87144628 L13.58125,3.9127686 L13.3328125,2.50780992 L13.2085937,2.42516529 Z M13.0015625,3.16896694 L13.25,2.59045455 L13.3328125,3.25161157 L13.0015625,3.16896694 Z" id="Fill-100" fill="#1A1107" fill-rule="nonzero"></path>
            <polygon id="Fill-102" fill="#1A1107" fill-rule="nonzero" points="13.9125828 2.50789256 13.7469578 3.83020661 14.4922703 3.95417355 14.5336766 3.7888843 13.9125828 3.70623967 13.9539891 3.25169421 14.5336766 3.33433884 14.5336766 3.16904959 13.9953953 3.08640496 14.0368016 2.67318182 14.6578953 2.75582645 14.6578953 2.59053719"></polygon>
            <path d="M14.8648437,2.63177686 L14.740625,3.95409091 L15.1132812,3.99541322 C15.1960937,3.99541322 15.2789062,3.99541322 15.3617187,3.95409091 C15.4445312,3.9127686 15.4859375,3.87144628 15.5273437,3.83012397 C15.56875,3.78880165 15.6101562,3.70615702 15.6515625,3.6235124 C15.6929687,3.54086777 15.6929687,3.45822314 15.734375,3.3342562 C15.734375,3.12764463 15.734375,2.96235537 15.6515625,2.83838843 C15.56875,2.71442149 15.4445312,2.67309917 15.2789062,2.63177686 L14.8648437,2.63177686 Z M14.8648437,3.83012397 L14.9890625,2.79706612 L15.2375,2.83838843 C15.3203125,2.83838843 15.3617187,2.87971074 15.403125,2.87971074 C15.4445312,2.92103306 15.4859375,2.96235537 15.4859375,3.00367769 C15.5273437,3.045 15.5273437,3.12764463 15.5273437,3.16896694 L15.5273437,3.37557851 C15.5273437,3.45822314 15.4859375,3.54086777 15.4859375,3.58219008 C15.4445312,3.6235124 15.4445312,3.66483471 15.403125,3.70615702 C15.3617187,3.74747934 15.3617187,3.78880165 15.3203125,3.78880165 C15.2789062,3.78880165 15.2789062,3.83012397 15.2375,3.83012397 L15.1546875,3.83012397 L15.1132812,3.83012397 L14.8648437,3.83012397 Z" id="Fill-104" fill="#1A1107" fill-rule="nonzero"></path>
            <polygon id="Fill-106" fill="#1A1107" fill-rule="nonzero" points="15.8601672 4.05971074 15.9548823 2.69938017 16.0785495 2.70805785 15.9838345 4.06838843"></polygon>
            <polygon id="Fill-108" fill="#1A1107" fill-rule="nonzero" points="16.3555102 2.75586777 16.2726977 4.07818182 16.4383227 4.07818182 16.4797289 3.49966942 16.9766039 3.49966942 16.9766039 3.33438017 16.4797289 3.33438017 16.4797289 2.92115702 17.0594164 2.92115702 17.0594164 2.79719008"></polygon>
            <polygon id="Fill-110" fill="#1A1107" fill-rule="nonzero" points="17.2662775 2.79702479 17.2249172 4.11933884 17.3489981 4.16066116 17.4317187 2.79702479"></polygon>
            <path d="M18.4258227,3.21024793 L18.5500414,3.21024793 C18.5500414,3.12760331 18.5086352,3.08628099 18.5086352,3.00363636 C18.4672289,2.96231405 18.4672289,2.92099174 18.4258227,2.87966942 C18.3844164,2.83834711 18.3430102,2.79702479 18.3016039,2.79702479 C18.2601977,2.79702479 18.1773852,2.75570248 18.1359789,2.75570248 C18.0531664,2.75570248 17.9703539,2.75570248 17.9289477,2.79702479 C17.8461352,2.83834711 17.8047289,2.87966942 17.7633227,2.96231405 C17.7219164,3.04495868 17.6805102,3.08628099 17.6805102,3.16892562 C17.6391039,3.25157025 17.6391039,3.33421488 17.6391039,3.45818182 C17.6391039,3.54082645 17.6391039,3.66479339 17.6805102,3.74743802 C17.6805102,3.83008264 17.7219164,3.91272727 17.7633227,3.95404959 C17.8047289,4.03669421 17.8461352,4.07801653 17.9289477,4.11933884 C18.0117602,4.16066116 18.0531664,4.16066116 18.1359789,4.16066116 C18.2601977,4.16066116 18.3844164,4.11933884 18.4672289,4.03669421 C18.5500414,3.95404959 18.5914477,3.78876033 18.5914477,3.62347107 L18.4672289,3.62347107 C18.4672289,3.66479339 18.4672289,3.74743802 18.4258227,3.78876033 C18.4258227,3.83008264 18.3844164,3.87140496 18.3430102,3.91272727 C18.3016039,3.95404959 18.3016039,3.95404959 18.2601977,3.9953719 C18.2187914,3.9953719 18.1773852,4.03669421 18.1359789,4.03669421 C18.0945727,4.03669421 18.0117602,4.03669421 17.9703539,3.9953719 C17.9289477,3.95404959 17.8875414,3.91272727 17.8461352,3.87140496 C17.8047289,3.83008264 17.8047289,3.74743802 17.7633227,3.7061157 L17.7633227,3.49950413 L17.7633227,3.29289256 C17.7633227,3.21024793 17.8047289,3.16892562 17.8461352,3.12760331 C17.8875414,3.08628099 17.9289477,3.04495868 17.9703539,3.00363636 C18.0117602,2.96231405 18.0531664,2.96231405 18.1359789,2.96231405 C18.2187914,2.96231405 18.2601977,3.00363636 18.3430102,3.04495868 C18.3844164,3.04495868 18.4258227,3.08628099 18.4258227,3.21024793" id="Fill-112" fill="#1A1107" fill-rule="nonzero"></path>
            <path d="M19.0469164,2.79702479 L18.7156664,4.16066116 L18.8812914,4.16066116 L18.9641039,3.74743802 L19.4195727,3.7061157 L19.5437914,4.11933884 L19.7094164,4.11933884 L19.2125414,2.79702479 L19.0469164,2.79702479 Z M19.0055102,3.58214876 L19.1711352,2.96231405 L19.3781664,3.58214876 L19.0055102,3.58214876 Z" id="Fill-114" fill="#1A1107" fill-rule="nonzero"></path>
            <polygon id="Fill-116" fill="#1A1107" fill-rule="nonzero" points="20.2062086 4.03669421 20.4960523 2.67305785 20.3718336 2.71438017 20.1233961 3.87140496 19.7507398 2.75570248 19.5851148 2.75570248 20.0819898 4.07801653"></polygon>
            <polygon id="Fill-118" fill="#1A1107" fill-rule="nonzero" points="20.6326102 2.64347107 20.7558638 2.63066116 20.8993841 3.98644628 20.7757168 3.99966942"></polygon>
            <polygon id="Fill-120" fill="#1A1107" fill-rule="nonzero" points="21.3242602 2.75586777 21.4898852 3.91289256 21.6141039 3.91289256 21.4484789 2.71454545 21.8211352 2.67322314 21.8211352 2.50793388 20.9516039 2.63190083 20.9516039 2.79719008"></polygon>
            <path d="M23.0631984,2.75586777 L23.1874172,2.75586777 C23.1874172,2.67322314 23.1460109,2.63190083 23.1460109,2.59057851 C23.1046047,2.5492562 23.1046047,2.50793388 23.0217922,2.46661157 C22.9803859,2.42528926 22.9389797,2.42528926 22.8975734,2.42528926 L22.7319484,2.42528926 C22.6905422,2.42528926 22.6491359,2.46661157 22.6077297,2.46661157 C22.5663234,2.50793388 22.5249172,2.50793388 22.4835109,2.5492562 C22.4421047,2.59057851 22.4421047,2.63190083 22.4006984,2.67322314 L22.4006984,2.8385124 C22.4006984,2.87983471 22.4421047,2.96247934 22.4421047,3.00380165 C22.4835109,3.04512397 22.4835109,3.08644628 22.5249172,3.08644628 C22.5663234,3.1277686 22.6077297,3.1277686 22.6491359,3.1277686 C22.6905422,3.1277686 22.7319484,3.1277686 22.7733547,3.16909091 L22.8975734,3.16909091 C22.9389797,3.16909091 22.9803859,3.16909091 23.0217922,3.21041322 C23.0631984,3.21041322 23.1046047,3.25173554 23.1046047,3.25173554 C23.1460109,3.29305785 23.1460109,3.29305785 23.1460109,3.37570248 L23.1460109,3.49966942 C23.1460109,3.54099174 23.1046047,3.54099174 23.1046047,3.58231405 C23.0631984,3.62363636 23.0631984,3.62363636 23.0217922,3.62363636 C22.9803859,3.62363636 22.9389797,3.62363636 22.9389797,3.66495868 L22.8147609,3.66495868 C22.7733547,3.66495868 22.7319484,3.66495868 22.6905422,3.62363636 C22.6491359,3.58231405 22.6491359,3.58231405 22.6077297,3.54099174 C22.5663234,3.49966942 22.5663234,3.45834711 22.5663234,3.41702479 L22.4421047,3.41702479 C22.4421047,3.49966942 22.4835109,3.58231405 22.5249172,3.62363636 C22.5663234,3.66495868 22.6077297,3.70628099 22.6491359,3.74760331 C22.6905422,3.78892562 22.7319484,3.78892562 22.8147609,3.83024793 L22.9803859,3.83024793 C23.0217922,3.83024793 23.0631984,3.78892562 23.1046047,3.78892562 C23.1460109,3.74760331 23.1874172,3.74760331 23.2288234,3.70628099 C23.2702297,3.66495868 23.3116359,3.62363636 23.3116359,3.58231405 C23.3116359,3.54099174 23.3530422,3.45834711 23.3116359,3.37570248 C23.3116359,3.29305785 23.2702297,3.25173554 23.2702297,3.21041322 C23.2288234,3.16909091 23.2288234,3.1277686 23.1874172,3.1277686 C23.1460109,3.08644628 23.1046047,3.08644628 23.0631984,3.08644628 C23.0217922,3.08644628 22.9803859,3.04512397 22.9389797,3.04512397 L22.8147609,3.04512397 C22.7733547,3.04512397 22.7319484,3.04512397 22.6905422,3.00380165 C22.6491359,3.00380165 22.6077297,2.96247934 22.6077297,2.96247934 C22.5663234,2.92115702 22.5663234,2.92115702 22.5663234,2.87983471 L22.5663234,2.75586777 C22.5663234,2.71454545 22.6077297,2.71454545 22.6077297,2.67322314 C22.6491359,2.67322314 22.6491359,2.63190083 22.6905422,2.63190083 C22.7319484,2.63190083 22.7319484,2.63190083 22.7733547,2.59057851 C22.8561672,2.59057851 22.8975734,2.59057851 22.9803859,2.63190083 C23.0217922,2.59057851 23.0631984,2.67322314 23.0631984,2.75586777" id="Fill-122" fill="#1A1107" fill-rule="nonzero"></path>
            <polygon id="Fill-124" fill="#1A1107" fill-rule="nonzero" points="23.4137852 2.32123967 23.5362116 2.30181818 23.7496307 3.6485124 23.6272043 3.66793388"></polygon>
            <path d="M24.18125,3.4168595 L24.0984375,2.96231405 L24.4296875,2.92099174 L24.5125,2.92099174 C24.5539063,2.92099174 24.5539063,2.92099174 24.5953125,2.96231405 C24.6367188,2.96231405 24.6367188,3.00363636 24.678125,3.00363636 C24.678125,3.04495868 24.7195313,3.04495868 24.7195313,3.12760331 C24.7195313,3.21024793 24.7195313,3.25157025 24.678125,3.29289256 C24.6367188,3.33421488 24.5953125,3.37553719 24.5539063,3.37553719 L24.18125,3.4168595 Z M23.85,2.25983471 L24.0570313,3.58214876 L24.5539063,3.49950413 C24.5953125,3.49950413 24.6367188,3.45818182 24.678125,3.45818182 C24.7195313,3.4168595 24.7609375,3.37553719 24.7609375,3.37553719 C24.7609375,3.33421488 24.8023438,3.29289256 24.8023438,3.25157025 L24.8023438,3.08628099 C24.8023438,3.00363636 24.7609375,2.92099174 24.7195313,2.87966942 C24.678125,2.83834711 24.6367188,2.79702479 24.5539063,2.79702479 C24.5953125,2.75570248 24.6367188,2.71438017 24.6367188,2.67305785 C24.6367188,2.63173554 24.678125,2.54909091 24.6367188,2.46644628 C24.6367188,2.38380165 24.5953125,2.34247934 24.5539063,2.30115702 C24.5125,2.25983471 24.4710938,2.2185124 24.4296875,2.2185124 L24.346875,2.2185124 L24.2640625,2.2185124 L24.18125,2.2185124 L24.0984375,2.2185124 L23.85,2.25983471 Z M24.0570313,2.79702479 L23.9742188,2.38380165 L24.2640625,2.34247934 L24.346875,2.34247934 L24.4296875,2.34247934 C24.4710938,2.34247934 24.4710938,2.38380165 24.4710938,2.38380165 C24.4710938,2.42512397 24.5125,2.42512397 24.5125,2.5077686 C24.5125,2.59041322 24.5125,2.63173554 24.4710938,2.67305785 C24.4296875,2.71438017 24.3882813,2.75570248 24.3054688,2.75570248 L24.0570313,2.79702479 Z" id="Fill-126" fill="#1A1107" fill-rule="nonzero"></path>
            <polygon id="Fill-128" fill="#1A1107" fill-rule="nonzero" points="24.8852391 2.09466942 25.1334008 3.41698347 25.2574817 3.37566116 25.0506802 2.05334711"></polygon>
            <path d="M25.7960523,1.92942149 L25.9616773,3.25173554 L26.3343336,3.21041322 C26.4171461,3.21041322 26.4999586,3.16909091 26.5413648,3.1277686 C26.6241773,3.08644628 26.6655836,3.04512397 26.6655836,2.96247934 C26.7069898,2.87983471 26.7069898,2.8385124 26.7069898,2.71454545 L26.7069898,2.42528926 C26.6655836,2.21867769 26.6241773,2.05338843 26.4999586,1.9707438 C26.3757398,1.88809917 26.2515211,1.84677686 26.0858961,1.88809917 L25.7960523,1.92942149 Z M26.0858961,3.08644628 L25.9616773,2.05338843 L26.2101148,2.01206612 L26.3757398,2.01206612 C26.4171461,2.01206612 26.4585523,2.05338843 26.4999586,2.09471074 C26.5413648,2.13603306 26.5827711,2.17735537 26.5827711,2.26 C26.6241773,2.30132231 26.6241773,2.38396694 26.6241773,2.46661157 L26.6241773,2.67322314 C26.6241773,2.71454545 26.6241773,2.79719008 26.5827711,2.8385124 C26.5827711,2.87983471 26.5413648,2.92115702 26.5413648,2.92115702 C26.4999586,2.96247934 26.4999586,2.96247934 26.4585523,3.00380165 C26.4171461,3.00380165 26.4171461,3.04512397 26.3757398,3.04512397 L26.3343336,3.04512397 L26.0858961,3.08644628 Z" id="Fill-130" fill="#1A1107" fill-rule="nonzero"></path>
            <path d="M26.9141039,2.46652893 C26.9141039,2.54917355 26.9555102,2.63181818 26.9555102,2.71446281 C26.9969164,2.79710744 27.0383227,2.87975207 27.0797289,2.92107438 C27.1211352,2.96239669 27.2039477,3.04504132 27.2453539,3.04504132 C27.3281664,3.08636364 27.3695727,3.08636364 27.4937914,3.08636364 C27.5766039,3.08636364 27.6594164,3.04504132 27.7008227,3.00371901 C27.7422289,2.96239669 27.8250414,2.87975207 27.8664477,2.83842975 C27.9078539,2.75578512 27.9078539,2.6731405 27.9492602,2.59049587 L27.9492602,2.34256198 C27.9492602,2.25991736 27.9078539,2.17727273 27.8664477,2.0946281 C27.8250414,2.01198347 27.7836352,1.92933884 27.7422289,1.88801653 C27.7008227,1.84669421 27.6180102,1.76404959 27.5766039,1.76404959 C27.4937914,1.72272727 27.4523852,1.72272727 27.3281664,1.72272727 C27.2453539,1.72272727 27.1625414,1.76404959 27.1211352,1.8053719 C27.0797289,1.84669421 26.9969164,1.88801653 26.9969164,1.97066116 C26.9555102,2.05330579 26.9555102,2.13595041 26.9141039,2.21859504 L26.9141039,2.46652893 M27.0797289,2.46652893 L27.0797289,2.25991736 C27.0797289,2.17727273 27.0797289,2.13595041 27.1211352,2.0946281 C27.1625414,2.05330579 27.1625414,2.01198347 27.2453539,1.97066116 C27.2867602,1.92933884 27.3281664,1.92933884 27.4109789,1.88801653 C27.4937914,1.88801653 27.5351977,1.88801653 27.5766039,1.92933884 L27.7008227,2.05330579 C27.7422289,2.0946281 27.7836352,2.17727273 27.7836352,2.21859504 C27.8250414,2.30123967 27.8250414,2.34256198 27.8250414,2.42520661 L27.8250414,2.63181818 C27.8250414,2.71446281 27.7836352,2.75578512 27.7836352,2.79710744 C27.7422289,2.83842975 27.7422289,2.87975207 27.7008227,2.92107438 C27.6594164,2.96239669 27.6180102,2.96239669 27.5351977,3.00371901 C27.4523852,3.00371901 27.4109789,3.00371901 27.3695727,2.96239669 L27.2453539,2.83842975 C27.2039477,2.79710744 27.1625414,2.71446281 27.1625414,2.6731405 C27.0797289,2.59049587 27.0797289,2.50785124 27.0797289,2.46652893" id="Fill-132" fill="#1A1107" fill-rule="nonzero"></path>
            <polygon id="Fill-134" fill="#1A1107" fill-rule="nonzero" points="28.1562914 1.68144628 28.2391039 3.00376033 28.3633227 3.00376033 28.2805102 1.88805785 28.6945727 3.00376033 28.8187914 3.00376033 29.1086352 1.84673554 29.1500414 2.96243802 29.2742602 2.96243802 29.2328539 1.64012397 29.0258227 1.64012397 28.7359789 2.75582645 28.3633227 1.68144628"></polygon>
            <path d="M30.3921875,2.50789256 L30.4335938,1.64012397 L30.309375,1.64012397 L30.2679688,2.50789256 C30.2679688,2.6318595 30.2265625,2.71450413 30.1851563,2.79714876 C30.14375,2.83847107 30.0609375,2.87979339 29.978125,2.87979339 C29.8953125,2.87979339 29.8125,2.83847107 29.7710938,2.75582645 C29.7296875,2.67318182 29.6882813,2.59053719 29.6882813,2.46657025 L29.7296875,1.59880165 L29.6054688,1.59880165 L29.5640625,2.46657025 C29.5640625,2.6318595 29.6054688,2.79714876 29.646875,2.87979339 C29.7296875,2.96243802 29.8125,3.00376033 29.978125,3.00376033 C30.1023438,3.00376033 30.2265625,2.96243802 30.309375,2.87979339 C30.3507813,2.83847107 30.3921875,2.71450413 30.3921875,2.50789256" id="Fill-136" fill="#1A1107" fill-rule="nonzero"></path>
            <polygon id="Fill-138" fill="#1A1107" fill-rule="nonzero" points="30.7648023 1.68144628 30.5577711 3.00376033 30.6819898 3.04508264 30.8476148 1.92938017 30.8890211 1.92938017 31.0132398 3.08640496 31.1374586 3.12772727 31.6343336 2.05334711 31.6757398 2.05334711 31.4687086 3.16904959 31.5929273 3.16904959 31.8413648 1.84673554 31.6343336 1.84673554 31.0960523 2.87979339 30.9718336 1.7227686"></polygon>
            <polygon id="Fill-140" fill="#000000" fill-rule="nonzero" points="130.719448 40.6896694 131.589394 40.6896694 129.519081 48.127686 128.524917 48.127686 126.454605 40.6896694 127.324136 40.6896694 128.980386 47.5078512"></polygon>
            <g id="Fill-142-Clipped">
                <mask id="mask-4" fill="white">
                    <use xlink:href="#path-3"></use>
                </mask>
                <g id="path-3"></g>
                <path d="M132.417188,48.0867769 L133.1625,48.0867769 L133.1625,42.5904959 L132.417188,42.5904959 L132.417188,48.0867769 Z M132.417188,41.681405 L133.1625,41.681405 L133.1625,40.6896694 L132.417188,40.6896694 L132.417188,41.681405 Z" id="Fill-142" fill="#000000" fill-rule="nonzero" mask="url(#mask-4)"></path>
            </g>
            <g id="Fill-144-Clipped">
                <mask id="mask-6" fill="white">
                    <use xlink:href="#path-5"></use>
                </mask>
                <g id="path-3"></g>
                <path d="M135.067105,45.3590083 C135.067105,46.7226446 135.274136,47.5904132 136.060855,47.5904132 C137.22023,47.5904132 137.22023,46.1028099 137.22023,45.2350413 C137.22023,44.1610744 137.013198,43.1280165 136.144081,43.1280165 C135.108925,43.1280165 135.067105,44.6152066 135.067105,45.3590083 Z M137.22023,42.5904132 L137.965542,42.5904132 L137.965542,47.425124 C137.965542,48.0866942 137.924136,48.6234711 137.55148,49.2019835 C137.22023,49.7395868 136.681948,49.9461983 136.060855,49.9461983 C135.191323,49.9461983 134.57023,49.5329752 134.446011,48.5821488 L135.191323,48.5821488 C135.274136,49.0780165 135.56398,49.2846281 136.019448,49.2846281 C137.261636,49.2846281 137.137417,48.0449587 137.137417,47.425124 C136.806167,48.0036364 136.474917,48.2102479 135.978042,48.2102479 C134.984292,48.2102479 134.23898,47.4668595 134.23898,45.2763636 C134.23898,44.1193388 134.528823,42.425124 135.93705,42.425124 C136.433511,42.425124 136.88898,42.6730579 137.137417,43.2102479 L137.137417,42.5904132 L137.22023,42.5904132 Z" id="Fill-144" fill="#000000" fill-rule="nonzero" mask="url(#mask-6)"></path>
            </g>
            <g id="Fill-145-Clipped">
                <mask id="mask-8" fill="white">
                    <use xlink:href="#path-7"></use>
                </mask>
                <g id="path-3"></g>
                <path d="M139.373437,48.0867769 L140.11875,48.0867769 L140.11875,42.5904959 L139.373437,42.5904959 L139.373437,48.0867769 Z M139.373437,41.681405 L140.11875,41.681405 L140.11875,40.6896694 L139.373437,40.6896694 L139.373437,41.681405 Z" id="Fill-145" fill="#000000" fill-rule="nonzero" mask="url(#mask-8)"></path>
            </g>
            <g id="Fill-146-Clipped">
                <mask id="mask-10" fill="white">
                    <use xlink:href="#path-9"></use>
                </mask>
                <g id="path-3"></g>
                <polygon id="Fill-146" fill="#000000" fill-rule="nonzero" mask="url(#mask-10)" points="141.526563 48.0863636 142.271875 48.0863636 142.271875 40.6483471 141.526563 40.6483471"></polygon>
            </g>
            <g id="Fill-147-Clipped">
                <mask id="mask-12" fill="white">
                    <use xlink:href="#path-11"></use>
                </mask>
                <g id="path-3"></g>
                <path d="M145.749834,45.1523967 C145.377592,45.4007438 144.96353,45.5656198 144.549467,45.7309091 C144.176397,45.8961983 144.093584,46.3094215 144.093584,46.6813223 C144.093584,47.2185124 144.218217,47.5904132 144.839311,47.5904132 C145.128741,47.5904132 145.749834,47.3424793 145.749834,46.4747107 L145.749834,45.1523967 Z M146.992022,48.0866942 C146.950616,48.0866942 146.867803,48.0866942 146.826811,48.1276033 C146.163897,48.1689256 145.956866,48.0866942 145.874467,47.3424793 C145.708428,47.8383471 145.211553,48.2515702 144.673272,48.2515702 C143.597123,48.2515702 143.30728,47.6317355 143.30728,46.6404132 C143.30728,46.4338017 143.348272,45.6482645 144.093584,45.317686 C144.507647,45.1110744 145.625616,44.6978512 145.708428,44.6152066 C145.874467,44.4912397 145.832647,44.2846281 145.832647,43.9953719 C145.832647,43.3755372 145.584623,43.1280165 144.96353,43.1280165 C144.259209,43.1280165 144.176397,43.4581818 144.176397,44.0780165 L143.472491,44.0780165 C143.431084,42.921405 143.969366,42.425124 145.046342,42.425124 C146.61978,42.425124 146.495561,43.7887603 146.495561,43.9127273 L146.495561,47.0536364 C146.495561,47.1771901 146.495561,47.3838017 146.61978,47.4668595 C146.743584,47.5077686 146.826811,47.4668595 146.950616,47.4668595 L146.950616,48.0866942 L146.992022,48.0866942 Z" id="Fill-147" fill="#000000" fill-rule="nonzero" mask="url(#mask-12)"></path>
            </g>
            <g id="Fill-148-Clipped">
                <mask id="mask-14" fill="white">
                    <use xlink:href="#path-13"></use>
                </mask>
                <g id="path-3"></g>
                <path d="M150.594448,45.276281 C150.594448,44.5324793 150.594448,43.1279339 149.559292,43.1279339 C148.938198,43.1279339 148.524136,43.6233884 148.524136,45.3180165 C148.524136,46.5159504 148.565956,47.5907438 149.601113,47.5907438 C150.387417,47.5907438 150.594448,46.557686 150.594448,45.9378512 L150.594448,45.276281 Z M150.594448,40.6895041 L151.339761,40.6895041 L151.339761,48.1275207 L150.594448,48.1275207 L150.594448,47.3841322 C150.263198,48.044876 149.931948,48.2514876 149.310855,48.2514876 C147.613198,48.2514876 147.737831,45.8138843 147.737831,45.3589256 C147.696011,43.7477686 148.192886,42.4663636 149.352261,42.4663636 C149.890542,42.4663636 150.222206,42.7147107 150.594448,43.168843 L150.594448,40.6895041 Z" id="Fill-148" fill="#000000" fill-rule="nonzero" mask="url(#mask-14)"></path>
            </g>
            <g id="Fill-149-Clipped">
                <mask id="mask-16" fill="white">
                    <use xlink:href="#path-15"></use>
                </mask>
                <g id="path-3"></g>
                <path d="M154.859209,45.1523967 C154.486967,45.4007438 154.072905,45.5656198 153.658842,45.7309091 C153.285772,45.8961983 153.202959,46.3094215 153.202959,46.6813223 C153.202959,47.2185124 153.327592,47.5904132 153.948686,47.5904132 C154.238116,47.5904132 154.859209,47.3424793 154.859209,46.4747107 L154.859209,45.1523967 Z M156.101397,48.0866942 C156.059991,48.0866942 155.977178,48.0866942 155.936186,48.1276033 C155.273272,48.1689256 155.066241,48.0866942 154.983842,47.3424793 C154.817803,47.8383471 154.320928,48.2515702 153.782647,48.2515702 C152.706498,48.2515702 152.416655,47.6317355 152.416655,46.6404132 C152.416655,46.4338017 152.457647,45.6482645 153.202959,45.317686 C153.617022,45.1110744 154.734991,44.6978512 154.817803,44.6152066 C154.983842,44.4912397 154.942022,44.2846281 154.942022,43.9953719 C154.942022,43.3755372 154.693998,43.1280165 154.072905,43.1280165 C153.368584,43.1280165 153.285772,43.4581818 153.285772,44.0780165 L152.581866,44.0780165 C152.540459,42.921405 153.078741,42.425124 154.155717,42.425124 C155.729155,42.425124 155.604936,43.7887603 155.604936,43.9127273 L155.604936,47.0536364 C155.604936,47.1771901 155.604936,47.3838017 155.729155,47.4668595 C155.852959,47.5077686 155.936186,47.4668595 156.059991,47.4668595 L156.059991,48.0866942 L156.101397,48.0866942 Z" id="Fill-149" fill="#000000" fill-rule="nonzero" mask="url(#mask-16)"></path>
            </g>
            <g id="Fill-150-Clipped">
                <mask id="mask-18" fill="white">
                    <use xlink:href="#path-17"></use>
                </mask>
                <g id="path-3"></g>
                <path d="M164.175616,40.6896694 L165.583428,40.6896694 L165.583428,48.127686 L164.796709,48.127686 L164.796709,42.0119835 L164.796709,41.0615702 C164.714311,41.5161157 164.631498,41.7640496 164.589678,42.0533058 L163.058061,48.127686 L162.063897,48.127686 L160.531866,41.9706612 C160.449053,41.7227273 160.407647,41.4747934 160.324834,41.0615702 L160.324834,42.0119835 L160.324834,48.127686 L159.53853,48.127686 L159.53853,40.6896694 L160.945928,40.6896694 L162.354155,46.4747934 C162.436967,46.8053719 162.477959,47.0946281 162.519366,47.5904959 C162.561186,47.218595 162.602178,46.8466942 162.684991,46.4747934 L164.175616,40.6896694 Z" id="Fill-150" fill="#000000" fill-rule="nonzero" mask="url(#mask-18)"></path>
            </g>
            <g id="Fill-151-Clipped">
                <mask id="mask-20" fill="white">
                    <use xlink:href="#path-19"></use>
                </mask>
                <g id="path-3"></g>
                <path d="M166.991406,48.0867769 L167.736719,48.0867769 L167.736719,42.5904959 L166.991406,42.5904959 L166.991406,48.0867769 Z M166.991406,41.681405 L167.736719,41.681405 L167.736719,40.6896694 L166.991406,40.6896694 L166.991406,41.681405 Z" id="Fill-151" fill="#000000" fill-rule="nonzero" mask="url(#mask-20)"></path>
            </g>
            <g id="Fill-152-Clipped">
                <mask id="mask-22" fill="white">
                    <use xlink:href="#path-21"></use>
                </mask>
                <g id="path-3"></g>
                <path d="M169.890009,43.2101653 C170.262252,42.7556198 170.676314,42.4663636 171.256416,42.4663636 C172.04272,42.4663636 172.581416,42.9213223 172.581416,43.8717355 L172.581416,48.1275207 L171.835689,48.1275207 L171.835689,44.0783471 C171.835689,43.4994215 171.670478,43.1279339 171.049384,43.1279339 C170.759541,43.1279339 170.511103,43.2519008 170.304072,43.4167769 C170.014228,43.7060331 169.972408,44.0366116 169.972408,44.4085124 L169.972408,48.0866116 L169.227095,48.0866116 L169.227095,42.5903306 L169.972408,42.5903306 L169.972408,43.2101653 L169.890009,43.2101653 Z" id="Fill-152" fill="#000000" fill-rule="nonzero" mask="url(#mask-22)"></path>
            </g>
            <g id="Fill-153-Clipped">
                <mask id="mask-24" fill="white">
                    <use xlink:href="#path-23"></use>
                </mask>
                <g id="path-3"></g>
                <path d="M176.307978,44.7807438 C176.266158,44.1191736 176.307978,43.1278512 175.438033,43.1278512 C174.568916,43.1278512 174.527095,44.1191736 174.486103,44.7807438 L176.307978,44.7807438 Z M177.053291,46.2683471 C177.094283,47.342314 176.556416,48.251405 175.438033,48.251405 C174.444697,48.251405 173.69897,47.5489256 173.69897,45.358843 C173.69897,44.2022314 173.988814,42.466281 175.438033,42.466281 C177.177509,42.466281 177.094283,44.1609091 177.136103,45.4419008 L174.486103,45.4419008 C174.486103,46.1852893 174.361884,47.5906612 175.438033,47.5906612 C176.183345,47.5906612 176.390377,46.8881818 176.307978,46.2683471 L177.053291,46.2683471 Z" id="Fill-153" fill="#000000" fill-rule="nonzero" mask="url(#mask-24)"></path>
            </g>
            <g id="Fill-154-Clipped">
                <mask id="mask-26" fill="white">
                    <use xlink:href="#path-25"></use>
                </mask>
                <g id="path-3"></g>
                <path d="M180.903906,45.276281 C180.903906,44.5324793 180.903906,43.1279339 179.86875,43.1279339 C179.247656,43.1279339 178.833594,43.6233884 178.833594,45.3180165 C178.833594,46.5159504 178.875,47.5907438 179.910156,47.5907438 C180.696875,47.5907438 180.903906,46.557686 180.903906,45.9378512 L180.903906,45.276281 Z M180.903906,40.6895041 L181.649219,40.6895041 L181.649219,48.1275207 L180.903906,48.1275207 L180.903906,47.3841322 C180.572656,48.044876 180.241406,48.2514876 179.620313,48.2514876 C177.922656,48.2514876 178.046875,45.8138843 178.046875,45.3589256 C178.005469,43.7477686 178.502344,42.4663636 179.661719,42.4663636 C180.2,42.4663636 180.53125,42.7147107 180.903906,43.168843 L180.903906,40.6895041 Z" id="Fill-154" fill="#000000" fill-rule="nonzero" mask="url(#mask-26)"></path>
            </g>
            <g id="Fill-155-Clipped">
                <mask id="mask-28" fill="white">
                    <use xlink:href="#path-27"></use>
                </mask>
                <g id="path-3"></g>
                <path d="M185.706866,47.3839669 C185.417436,47.9620661 184.920561,48.2517355 184.423272,48.2517355 C183.636553,48.2517355 183.140092,47.7971901 183.140092,46.8467769 L183.140092,42.5901653 L183.885405,42.5901653 L183.885405,46.8880992 C183.885405,47.3422314 184.050616,47.5905785 184.589311,47.5905785 C184.961553,47.5905785 185.292803,47.4252893 185.499834,47.0947107 C185.665459,46.8054545 185.706866,46.4335537 185.706866,46.1442975 L185.706866,42.5901653 L186.452592,42.5901653 L186.452592,48.0864463 L185.706866,48.0864463 L185.706866,47.3839669 Z" id="Fill-155" fill="#000000" fill-rule="nonzero" mask="url(#mask-28)"></path>
            </g>
            <g id="Fill-156-Clipped">
                <mask id="mask-30" fill="white">
                    <use xlink:href="#path-29"></use>
                </mask>
                <g id="path-3"></g>
                <path d="M188.439927,45.6071901 C188.439927,46.3509917 188.481333,47.5906612 189.475083,47.5906612 C190.303208,47.5906612 190.38602,46.8468595 190.427427,46.1852893 L191.131333,46.1852893 C191.089513,47.2600826 190.71727,48.251405 189.516489,48.251405 C187.860239,48.251405 187.653208,46.8468595 187.653208,45.4005785 C187.653208,44.0365289 187.860239,42.4253719 189.516489,42.4253719 C190.593052,42.4253719 191.131333,43.2927273 191.089513,44.3257851 L190.38602,44.3257851 C190.38602,43.7059504 190.220395,43.1278512 189.516489,43.1278512 C188.357114,43.1278512 188.439927,44.8220661 188.439927,45.6071901" id="Fill-156" fill="#000000" fill-rule="nonzero" mask="url(#mask-30)"></path>
            </g>
            <g id="Fill-157-Clipped">
                <mask id="mask-32" fill="white">
                    <use xlink:href="#path-31"></use>
                </mask>
                <g id="path-3"></g>
                <path d="M194.278042,45.1523967 C193.9058,45.4007438 193.491737,45.5656198 193.077675,45.7309091 C192.704605,45.8961983 192.621792,46.3094215 192.621792,46.6813223 C192.621792,47.2185124 192.746011,47.5904132 193.367105,47.5904132 C193.656948,47.5904132 194.278042,47.3424793 194.278042,46.4747107 L194.278042,45.1523967 Z M195.52023,48.0866942 C195.478823,48.0866942 195.396011,48.0866942 195.355019,48.1276033 C194.692105,48.1689256 194.485073,48.0866942 194.402261,47.3424793 C194.236636,47.8383471 193.739761,48.2515702 193.20148,48.2515702 C192.124917,48.2515702 191.835487,47.6317355 191.835487,46.6404132 C191.835487,46.4338017 191.87648,45.6482645 192.621792,45.317686 C193.035855,45.1110744 194.153823,44.6978512 194.236636,44.6152066 C194.402261,44.4912397 194.360855,44.2846281 194.360855,43.9953719 C194.360855,43.3755372 194.112831,43.1280165 193.491737,43.1280165 C192.787417,43.1280165 192.704605,43.4581818 192.704605,44.0780165 L192.000698,44.0780165 C191.959292,42.921405 192.497573,42.425124 193.574136,42.425124 C195.147987,42.425124 195.023355,43.7887603 195.023355,43.9127273 L195.023355,47.0536364 C195.023355,47.1771901 195.023355,47.3838017 195.147987,47.4668595 C195.271792,47.5077686 195.355019,47.4668595 195.478823,47.4668595 L195.478823,48.0866942 L195.52023,48.0866942 Z" id="Fill-157" fill="#000000" fill-rule="nonzero" mask="url(#mask-32)"></path>
            </g>
            <g id="Fill-158-Clipped">
                <mask id="mask-34" fill="white">
                    <use xlink:href="#path-33"></use>
                </mask>
                <g id="path-3"></g>
                <path d="M197.011103,45.6071901 C197.011103,46.3509917 197.052509,47.5906612 198.046259,47.5906612 C198.874384,47.5906612 198.956783,46.8468595 198.998603,46.1852893 L199.702509,46.1852893 C199.660689,47.2600826 199.288447,48.251405 198.087666,48.251405 C196.431416,48.251405 196.224384,46.8468595 196.224384,45.4005785 C196.224384,44.0365289 196.431416,42.4253719 198.087666,42.4253719 C199.163814,42.4253719 199.702509,43.2927273 199.660689,44.3257851 L198.956783,44.3257851 C198.956783,43.7059504 198.791572,43.1278512 198.087666,43.1278512 C196.928291,43.1278512 197.011103,44.8220661 197.011103,45.6071901" id="Fill-158" fill="#000000" fill-rule="nonzero" mask="url(#mask-34)"></path>
            </g>
            <g id="Fill-159-Clipped">
                <mask id="mask-36" fill="white">
                    <use xlink:href="#path-35"></use>
                </mask>
                <g id="path-3"></g>
                <path d="M200.778906,48.0867769 L201.524219,48.0867769 L201.524219,42.5904959 L200.778906,42.5904959 L200.778906,48.0867769 Z M200.778906,41.681405 L201.524219,41.681405 L201.524219,40.6896694 L200.778906,40.6896694 L200.778906,41.681405 Z" id="Fill-159" fill="#000000" fill-rule="nonzero" mask="url(#mask-36)"></path>
            </g>
            <g id="Fill-160-Clipped">
                <mask id="mask-38" fill="white">
                    <use xlink:href="#path-37"></use>
                </mask>
                <g id="path-3"></g>
                <path d="M204.836636,40.5242149 L205.871792,40.5242149 L204.588198,41.9291736 L203.925698,41.9291736 L204.836636,40.5242149 Z M204.629605,43.1279339 C203.8433,43.1279339 203.511636,43.7477686 203.511636,45.4415702 C203.511636,46.722562 203.760073,47.6316529 204.629605,47.6316529 C205.540542,47.6316529 205.747573,46.7642975 205.747573,45.4415702 C205.747573,43.7477686 205.416323,43.1279339 204.629605,43.1279339 Z M204.629605,48.2514876 C203.47023,48.2514876 202.724917,47.5490083 202.724917,45.152314 C202.724917,43.4994215 203.304605,42.4254545 204.629605,42.4254545 C205.954605,42.4254545 206.534706,43.4585124 206.534706,45.152314 C206.534706,47.5490083 205.830386,48.2514876 204.629605,48.2514876 Z" id="Fill-160" fill="#000000" fill-rule="nonzero" mask="url(#mask-38)"></path>
            </g>
            <g id="Fill-161-Clipped">
                <mask id="mask-40" fill="white">
                    <use xlink:href="#path-39"></use>
                </mask>
                <g id="path-3"></g>
                <path d="M208.480303,43.2101653 C208.852959,42.7556198 209.267022,42.4663636 209.847123,42.4663636 C210.633428,42.4663636 211.171709,42.9213223 211.171709,43.8717355 L211.171709,48.1275207 L210.426397,48.1275207 L210.426397,44.0783471 C210.426397,43.4994215 210.261186,43.1279339 209.640092,43.1279339 C209.350248,43.1279339 209.101397,43.2519008 208.894366,43.4167769 C208.604936,43.7060331 208.563116,44.0366116 208.563116,44.4085124 L208.563116,48.0866116 L207.817803,48.0866116 L207.817803,42.5903306 L208.563116,42.5903306 L208.563116,43.2101653 L208.480303,43.2101653 Z" id="Fill-161" fill="#000000" fill-rule="nonzero" mask="url(#mask-40)"></path>
            </g>
        </g>
    </g>
</svg>