<svg xmlns="http://www.w3.org/2000/svg" xmlns:xlink="http://www.w3.org/1999/xlink" width="222px" height="50px" viewBox="0 0 222 50"><title>Group 3</title><desc>Created with Sketch.</desc><defs></defs><g id="Page-1" stroke="none" stroke-width="1" fill="none" fill-rule="evenodd"><g id="Group-3"><path d="M47.3302115,14.1039907 C47.7607404,14.1591719 47.9392524,14.3955451 47.9360214,14.844407 L47.9012883,19.5422207 C47.8907876,20.9118673 48.1541129,21.9364256 48.9206643,22.7031971 C49.7082172,23.5070305 50.7041686,23.9377733 52.5531003,23.9525981 C55.364058,23.9740117 56.9294707,22.3012803 56.9488566,19.7374139 L56.9843974,14.9465334 C56.9876284,14.5100255 57.2121819,14.2580039 57.6378643,14.1657607 L57.6410953,13.7564316 L54.5942756,13.7325472 L54.5910446,14.1418763 C54.9714932,14.2151767 55.2315876,14.5676774 55.2291643,14.9012354 L55.1968545,19.2613732 C55.182315,21.1408281 54.3761841,22.0994984 52.6249897,22.0854972 C50.944877,22.0723196 50.138746,21.0691749 50.1500545,19.5603399 L50.1831721,15.0577194 C50.1880186,14.5157907 50.3592608,14.2217655 50.7776735,14.0982255 L50.7800967,13.7028976 L47.3334425,13.6757188 L47.3302115,14.1039907 Z" id="Fill-5" fill="#FFFFFF"></path><path d="M58.4595848,14.1575247 C58.8529574,14.2448263 59.1203215,14.5001423 59.1170905,15.0025382 L59.0597405,22.6216607 C59.0573172,22.9568658 58.7851067,23.2788934 58.3909264,23.3184262 L58.3885031,23.6956349 L61.4482468,23.7195193 L61.45067,23.3241914 C61.0581053,23.2690102 60.7972031,22.9000374 60.8004341,22.5129455 L60.8456679,16.415012 L67.8205588,23.9114181 L68.84882,23.9196541 L68.915863,15.0223046 C68.9174785,14.757929 68.9497884,14.3955451 69.5685222,14.2291779 L69.5709454,13.8486748 L66.4853538,13.8247904 L66.4821229,14.2052935 C66.8714567,14.2374139 67.1388208,14.617917 67.1355898,15.0659554 L67.0992412,19.9301363 L61.3440475,13.784434 L58.4628158,13.7621968 L58.4595848,14.1575247 Z" id="Fill-7" fill="#FFFFFF"></path><path d="M70.4333763,14.251168 C70.8396728,14.3483528 71.0335319,14.621788 71.0286855,15.2197215 L70.972951,22.628826 C70.9713355,22.9557951 70.8000932,23.3033543 70.3905658,23.4120695 L70.3873348,23.7892782 L73.7919862,23.8156334 L73.7952172,23.4211291 C73.3307629,23.3099431 73.1958693,22.900614 73.199908,22.4385744 L73.2556425,14.9718179 C73.2580658,14.6250824 73.4640411,14.345882 73.8291425,14.2775232 L73.8323735,13.8821953 L70.4366073,13.8558401 L70.4333763,14.251168 Z" id="Fill-9" fill="#FFFFFF"></path><path d="M73.9187216,14.2632749 C74.3395575,14.4074049 74.6077293,14.6890761 74.8112815,15.166764 L78.7999336,24.1571803 L79.9477413,24.1662399 L83.8095772,15.31913 C84.0187836,14.84556 84.3184575,14.4304657 84.7320237,14.3769317 L84.7352547,13.966779 L81.6254308,13.942071 L81.6221998,14.3233977 C81.9364131,14.3546945 82.0608061,14.5103549 82.0591906,14.7335505 C82.0575751,14.8892108 82.0188033,15.0580488 81.9121808,15.2639488 L79.560023,20.6651168 L77.0931653,15.0613432 C77.036623,14.9336852 76.9921969,14.8101453 76.9930047,14.6940177 C76.9946202,14.4782345 77.1367836,14.3176325 77.4913843,14.2912773 L77.4946153,13.9099506 L73.9211448,13.8827718 L73.9187216,14.2632749 Z" id="Fill-11" fill="#FFFFFF"></path><path d="M85.1830693,14.3658131 C85.6943729,14.5255915 85.7904947,14.843501 85.7872637,15.2898922 L85.7323369,22.6191075 C85.7274905,23.2203354 85.4843588,23.4451782 85.1144109,23.525891 L85.1119877,23.9039233 L92.6094905,23.9623989 L93.5303215,21.5484277 L93.0246722,21.5443097 C92.7233827,21.94705 92.2880074,22.2979036 91.578806,22.292962 L87.9794877,22.2649596 L88.0004891,19.4490716 L91.7112764,19.4778976 C92.2080405,19.4820156 92.4479412,19.6689727 92.540832,20.0560647 L92.9237038,20.0585355 L92.9447053,17.2541779 L92.5618334,17.2508835 C92.432594,17.6396226 92.1571524,17.8372866 91.5666898,17.832345 L88.0126053,17.8051662 L88.0287602,15.7000449 L91.3324433,15.7255765 C92.1030334,15.7313417 92.5876813,15.9224169 92.894625,16.451168 L93.4245067,16.455286 L92.489944,14.02649 L85.1854926,13.9704852 L85.1830693,14.3658131 Z" id="Fill-13" fill="#FFFFFF"></path><path d="M94.0993788,14.4349955 C94.4935591,14.5354747 94.688226,14.8179695 94.6841873,15.3104822 L94.6268373,22.8983079 C94.6244141,23.2656334 94.3901676,23.5283618 94.0307204,23.624723 L94.0282972,23.9731057 L97.4111394,23.9994609 L97.4135627,23.6807278 C96.9588014,23.5596586 96.7996753,23.1989218 96.8037141,22.6973495 L96.8562176,15.6827493 L97.91275,15.6909853 C99.0161317,15.7000449 99.5637838,16.0064241 99.5573218,16.834142 C99.5500521,17.8125786 98.7108035,18.0703654 97.6688105,18.0621294 L97.4361796,18.0604822 L97.4256788,19.4416592 C98.9183943,20.5848158 100.000775,22.3967355 99.9951204,23.1956274 C99.9926972,23.4904762 99.8028767,23.5975442 99.5306662,23.6527254 L99.5274352,24.0159329 L103.186527,24.0447589 L103.189758,23.6963762 C102.571024,23.4838874 102.260042,21.6225517 100.845677,20.2051363 C100.307718,19.6697963 99.9490788,19.4457772 99.5944781,19.2069332 C101.00965,18.8890237 101.732583,18.0497754 101.742276,16.6834232 C101.752777,15.3895478 100.960377,14.092378 98.71565,14.0750824 L94.1026098,14.0396676 L94.0993788,14.4349955 Z" id="Fill-15" fill="#FFFFFF"></path><path d="M103.141212,20.8014226 L104.048311,24.2185385 L104.385949,24.2210093 L104.684008,23.8446241 C105.289818,24.0851153 106.20661,24.3610213 107.150866,24.3684337 C109.721115,24.3882001 110.578942,22.9246631 110.591058,21.3194669 C110.596712,20.5345762 110.205763,19.7892183 109.74454,19.3296496 C108.620964,18.1955526 106.478013,17.6256214 105.85524,16.9774483 C105.641995,16.7756664 105.601608,16.5549416 105.602416,16.3968104 C105.605647,15.9652441 105.975595,15.4373166 106.864923,15.444729 C108.276864,15.4554358 109.183964,16.562354 109.616916,17.3414795 L110.165376,17.3455975 L109.823699,14.0536688 L109.485253,14.051198 L109.116113,14.4720575 C108.624195,14.2266247 107.992538,13.8881252 106.708221,13.878242 C104.494995,13.8609464 103.588704,15.2684786 103.579818,16.4626984 C103.574164,17.1635819 103.83022,17.906469 104.327792,18.4154537 C105.348783,19.4449536 107.326147,19.9242887 108.125816,20.734711 C108.445683,21.0485025 108.498187,21.3169961 108.496571,21.5953729 C108.492533,22.1018868 108.1242,22.7434711 107.007087,22.7352351 C105.82293,22.7261755 104.434414,21.955286 103.713097,20.8055406 L103.141212,20.8014226 Z" id="Fill-17" fill="#FFFFFF"></path><path d="M111.181198,14.568501 C111.590725,14.6656858 111.781353,14.939121 111.777314,15.5370545 L111.72158,22.946159 C111.719157,23.2731282 111.550338,23.6206873 111.144849,23.7294025 L111.141618,24.1074349 L114.539,24.1329665 L114.541423,23.7384621 C114.074545,23.6272761 113.937228,23.217947 113.941267,22.7559075 L113.996194,15.2891509 C113.999425,14.9424154 114.215901,14.663215 114.579387,14.5948562 L114.58181,14.1995283 L111.183621,14.1731731 L111.181198,14.568501 Z" id="Fill-19" fill="#FFFFFF"></path><path d="M115.14699,14.5990566 C115.586404,14.6863582 115.764109,15.0100329 115.760878,15.4317161 L115.704335,22.9404762 C115.701912,23.3423929 115.504014,23.6792453 115.090448,23.7599581 L115.088025,24.1371668 L119.566171,24.1725816 C123.01121,24.1989368 124.916684,22.2297095 124.939301,19.2318059 C124.962726,16.0724768 122.870662,14.2638515 119.679256,14.2391435 L115.150221,14.2037287 L115.14699,14.5990566 Z M119.364235,15.9201108 C121.463568,15.9374064 122.653378,17.1884546 122.638031,19.2466307 C122.621069,21.4975292 121.275363,22.5245583 119.040328,22.5064391 L117.952294,22.4982031 L118.001566,15.9102276 L119.364235,15.9201108 Z" id="Fill-21" fill="#FFFFFF"></path><path d="M125.47411,22.4715184 C124.939382,23.5702007 124.727752,23.7645702 124.347304,23.8732854 L124.351342,24.2093142 L127.435318,24.2331986 L127.437742,23.8971698 C127.083141,23.882345 126.974095,23.709389 126.975711,23.4993711 C126.976518,23.3346511 127.06537,23.1229859 127.131606,22.9755615 L127.661487,21.8851153 L131.840768,21.9172357 L132.395689,23.0818059 C132.483734,23.2671159 132.537045,23.4219527 132.536237,23.5421983 C132.534622,23.7530398 132.389228,23.894699 132.039473,23.9334082 L132.03705,24.269437 L135.578211,24.2966158 L135.580634,23.948233 C135.103256,23.7489218 134.882741,23.4128931 134.686458,22.9870919 L130.4886,14.0337376 L129.501534,14.0255016 L125.47411,22.4715184 Z M131.075832,20.2873315 L128.434501,20.2667415 L129.758397,17.5233303 L131.075832,20.2873315 Z" id="Fill-23" fill="#FFFFFF"></path><path d="M135.724009,14.7599057 C136.161,14.8472072 136.338704,15.170882 136.335473,15.5925651 L136.278931,23.1013252 C136.276507,23.5024184 136.073763,23.8392707 135.675544,23.9199835 L135.673121,24.2980159 L140.137536,24.3326071 C143.586613,24.3597859 145.490472,22.3905586 145.513088,19.392655 C145.536513,16.2333258 143.442834,14.4238769 140.255467,14.3991689 L135.72724,14.3645777 L135.724009,14.7599057 Z M139.93156,16.0809599 C142.034932,16.0974319 143.229589,17.3493037 143.213434,19.4074798 C143.196472,21.6583783 141.845919,22.6845837 139.618155,22.6672881 L138.526889,22.6590521 L138.576162,16.0702531 L139.93156,16.0809599 Z" id="Fill-25" fill="#FFFFFF"></path><path d="M158.593331,27.5852501 C158.855041,27.5852501 159.011744,27.7606768 159.011744,28.0357592 L159.011744,29.3345762 C158.638565,29.1978586 158.150686,29.0372567 157.649075,29.0372567 C156.305793,29.0372567 155.257338,30.0066337 155.257338,31.5377059 C155.257338,32.9905361 156.219364,33.9730907 157.451985,33.9730907 C158.002868,33.9730907 158.627256,33.7037736 159.011744,33.3331536 L159.011744,33.9599131 L159.325149,33.9599131 C159.890572,33.5266996 160.433378,33.282914 160.872792,33.0868973 L160.872792,32.7961665 C160.561809,32.7805181 160.455187,32.6322701 160.455187,32.2237646 L160.455187,26.2188979 L160.151474,26.2188979 C159.81949,26.541749 159.232258,26.9444894 158.593331,27.2920485 L158.593331,27.5852501 Z M159.011744,32.3020066 C158.750034,32.531791 158.334044,32.7623989 157.907554,32.7623989 C157.276704,32.7623989 156.738745,32.3020066 156.738745,31.3795747 C156.738745,30.5395028 157.126463,30.0692273 157.855051,30.0692273 C158.297696,30.0692273 158.653912,30.2191225 159.011744,30.5279724 L159.011744,32.3020066 Z" id="Fill-27" fill="#FFFFFF"></path><path d="M166.237682,32.0172881 C165.868542,32.4010857 165.341084,32.8235924 164.649653,32.8235924 C164.05919,32.8235924 163.65047,32.4727388 163.491344,32.0329365 L166.990502,31.1030922 L166.904881,30.7135295 C166.598745,30.6756439 166.578551,30.1831312 166.017975,29.6239069 C165.757073,29.3578841 165.282118,29.0210317 164.425099,29.0210317 C163.11655,29.0210317 161.95501,29.8825172 161.95501,31.5115978 C161.95501,31.9728137 162.153716,33.9733378 164.425099,33.9733378 C165.583408,33.9733378 166.264338,33.4454103 166.946076,32.6918164 L166.237682,32.0172881 Z M163.357258,31.0759134 C163.332218,30.5586927 163.684396,29.9846436 164.369365,29.9846436 C164.75466,29.9846436 165.006677,30.1831312 165.236077,30.5586927 L163.357258,31.0759134 Z" id="Fill-29" fill="#FFFFFF"></path><path d="M177.719314,31.3433363 C177.153083,32.157053 176.382493,32.6932165 175.301728,32.6932165 C173.753278,32.6932165 172.772674,31.4668763 172.772674,29.8830937 C172.772674,28.2375412 173.952792,27.4295897 175.242763,27.4295897 C176.105436,27.4295897 177.131274,27.8125636 177.740315,28.8667715 L178.174883,28.8667715 L177.7492,26.3984426 L177.467297,26.3984426 L177.197509,26.6957622 C176.524657,26.385265 175.789607,26.2312519 175.069098,26.2312519 C173.63454,26.2312519 172.772674,26.7402366 172.262986,27.2549865 C171.504512,28.0110512 171.109524,28.9252471 171.109524,30.0692273 C171.109524,31.162968 171.456855,32.2081162 172.286411,33.0325397 C172.901106,33.6387092 173.74924,34.0266247 174.988323,34.0266247 C176.617548,34.0266247 177.78878,33.3397424 178.646607,31.9297394 L177.719314,31.3433363 Z" id="Fill-31" fill="#FFFFFF"></path><path d="M182.460866,30.0202231 C183.227418,30.0202231 183.79284,30.7927598 183.79284,31.6880129 C183.79284,32.5223196 183.166837,32.9670635 182.502869,32.9670635 C181.642619,32.9670635 181.178973,32.109696 181.178973,31.3437481 C181.178973,30.5275606 181.745203,30.0202231 182.460866,30.0202231 M182.602222,28.9742513 C180.992383,28.9742513 179.797726,29.9848083 179.797726,31.4878781 C179.797726,32.7809299 180.678978,34.0270365 182.360706,34.0270365 C183.87523,34.0270365 185.178125,33.1029575 185.178125,31.4878781 C185.178125,30.1338799 184.207214,28.9742513 182.602222,28.9742513" id="Fill-33" fill="#FFFFFF"></path><path d="M186.333203,27.6049341 C186.611068,27.6049341 186.754039,27.7210617 186.754039,28.0167341 L186.754039,32.9789233 C186.754039,33.3207173 186.636108,33.4829665 186.306547,33.5406184 L186.306547,33.7959344 L188.623164,33.7959344 L188.623164,33.5447364 C188.33803,33.4961441 188.192635,33.3338949 188.192635,32.9278601 L188.192635,26.2319931 L187.923656,26.2319931 C187.512513,26.6232031 186.92932,27.0382974 186.333203,27.315027 L186.333203,27.6049341 Z" id="Fill-35" fill="#FFFFFF"></path><path d="M192.409395,30.0202231 C193.166253,30.0202231 193.730868,30.7927598 193.730868,31.6880129 C193.730868,32.5223196 193.105673,32.9670635 192.444936,32.9670635 C191.584686,32.9670635 191.119424,32.109696 191.119424,31.3437481 C191.119424,30.5275606 191.684846,30.0202231 192.409395,30.0202231 M192.542673,28.9742513 C190.936873,28.9742513 189.744639,29.9848083 189.744639,31.4878781 C189.744639,32.7809299 190.614582,34.0270365 192.298734,34.0270365 C193.815682,34.0270365 195.127462,33.1029575 195.127462,31.4878781 C195.127462,30.1338799 194.152512,28.9742513 192.542673,28.9742513" id="Fill-37" fill="#FFFFFF"></path><path d="M196.153138,30.3596286 C196.433426,30.3728062 196.565897,30.539997 196.565897,30.787077 L196.565897,33.0009134 C196.565897,33.2496406 196.408386,33.5049566 196.153138,33.5395478 L196.153138,33.7956873 L198.405136,33.7956873 L198.405136,33.5568434 C198.112731,33.4975442 197.979453,33.2496406 197.979453,32.9391435 L197.979453,30.6001198 C198.455216,30.2665618 198.742774,30.1537287 199.064257,30.1537287 C199.529519,30.1537287 199.737917,30.4386942 199.737917,30.8620246 L199.737917,32.9276131 C199.737917,33.1738694 199.642603,33.4827194 199.333236,33.545313 L199.333236,33.7956873 L201.576348,33.7956873 L201.576348,33.5271938 C201.277482,33.4827194 201.149858,33.2059898 201.149858,32.9391435 L201.149858,30.6001198 C201.527076,30.3060946 201.905909,30.1405511 202.251624,30.1405511 C202.6975,30.1405511 202.920438,30.4032794 202.920438,30.9550913 L202.920438,32.9473795 C202.920438,33.2834082 202.802507,33.5049566 202.493948,33.5395478 L202.493948,33.7956873 L204.756446,33.7956873 L204.756446,33.5395478 C204.479389,33.4646002 204.327533,33.1969302 204.327533,32.9276131 L204.327533,30.4469302 C204.327533,29.9741839 204.098941,29.0113956 202.770198,29.0113956 C202.060996,29.0113956 201.538384,29.2790656 200.978616,29.7188679 C200.780718,29.3227164 200.329188,29.0113956 199.626448,29.0113956 C198.980251,29.0113956 198.482679,29.2790656 197.979453,29.6859239 L197.979453,29.0113956 L197.667663,29.0113956 C197.291253,29.3877808 196.767026,29.7575771 196.153138,30.0820755 L196.153138,30.3596286 Z" id="Fill-39" fill="#FFFFFF"></path><path d="M205.77663,27.5852501 C206.005222,27.5720725 206.192619,27.7606768 206.192619,27.9871668 L206.192619,32.3020066 C206.192619,32.552381 206.126384,32.7327493 205.914755,32.7961665 L205.914755,33.0490117 C206.736233,33.653534 207.690181,33.9821503 208.687748,33.9821503 C210.305664,33.9821503 211.43651,32.9147649 211.43651,31.4018119 C211.43651,30.1548817 210.632802,29.0117251 209.262864,29.0117251 C208.541546,29.0117251 208.106171,29.2398622 207.588405,29.5750674 L207.588405,26.2188979 L207.319426,26.2188979 C206.91636,26.591165 206.526219,26.9131926 205.77663,27.3151093 L205.77663,27.5852501 Z M207.588405,30.5642108 C207.875963,30.3723121 208.291145,30.1235849 208.825065,30.1235849 C209.390488,30.1235849 209.928447,30.6128032 209.928447,31.4981731 C209.928447,32.2632974 209.547191,32.9386493 208.634437,32.9386493 C208.031858,32.9386493 207.588405,32.552381 207.588405,31.996451 L207.588405,30.5642108 Z" id="Fill-41" fill="#FFFFFF"></path><path d="M212.678824,30.4119272 C212.955073,30.4119272 213.11016,30.6128856 213.11016,30.8937332 L213.11016,32.9576745 C213.11016,33.2492288 212.993037,33.4831312 212.701441,33.5407832 L212.701441,33.7944519 L214.958284,33.7944519 L214.958284,33.5449012 C214.700613,33.497956 214.528563,33.2928796 214.528563,32.9906184 L214.528563,29.0431042 L214.255545,29.0431042 C213.728086,29.5537361 213.201436,29.8296421 212.678824,30.1343741 L212.678824,30.4119272 Z M212.861374,27.3555481 C213.140855,27.5976864 213.40418,27.8447664 213.649735,28.109142 L213.919522,28.109142 C214.176386,27.8365304 214.413863,27.6050988 214.651341,27.3777853 L214.651341,27.0771713 C214.383169,26.8613881 214.159423,26.6225442 213.941331,26.3746406 L213.623079,26.3746406 C213.40418,26.6225442 213.140855,26.8613881 212.861374,27.0903489 L212.861374,27.3555481 Z" id="Fill-43" fill="#FFFFFF"></path><path d="M217.177406,30.5784591 C217.376112,30.1740716 217.847836,29.9640536 218.4593,29.9640536 C218.99322,29.9640536 219.292894,30.2078392 219.316319,30.5998727 C218.06835,30.6929395 217.219409,30.8873091 216.733953,31.3658206 C216.453665,31.640903 216.294539,32.0172881 216.294539,32.4175577 C216.294539,33.3523435 216.88581,33.9733378 217.978691,33.9733378 C218.637004,33.9733378 219.19758,33.7822627 219.826815,33.4824723 C219.955246,33.7196691 220.340541,33.8654462 220.708874,33.8654462 C221.074783,33.8654462 221.443923,33.7822627 221.821948,33.5673031 L221.616781,32.840888 C221.502888,32.8606544 221.41646,32.8845388 221.354263,32.8845388 C221.247641,32.8845388 221.199176,32.8565364 221.142634,32.7947664 C220.770262,32.4224993 221.099823,30.305024 220.349427,29.5654313 C220.042483,29.2499925 219.54895,29.0366801 218.721817,29.0366801 C217.677401,29.0366801 216.998894,29.2977613 216.598252,29.4797769 C216.733953,29.8751048 216.805843,30.1230084 216.924581,30.6130503 L217.177406,30.5784591 Z M219.54895,32.6053384 C219.089342,32.824416 218.659621,32.9463088 218.349446,32.9463088 C217.959305,32.9463088 217.717788,32.7478212 217.717788,32.3796721 C217.717788,31.8286837 218.429413,31.640903 219.445558,31.5231282 L219.54895,32.6053384 Z" id="Fill-45" fill="#FFFFFF"></path><path d="M158.588565,20.7226041 C157.847054,21.7957547 156.829293,22.4900494 155.420584,22.4900494 C153.389101,22.4900494 152.09913,20.8897948 152.09913,18.8102052 C152.09913,16.6474319 153.643541,15.5907532 155.339809,15.5907532 C156.470654,15.5907532 157.81636,16.0931491 158.607951,17.4767969 L159.186298,17.4767969 L158.627337,14.2318134 L158.252543,14.2318134 L157.89875,14.6254942 C157.019922,14.2178122 156.057088,14.0119122 155.102332,14.0119122 C153.22836,14.0119122 152.09913,14.6889114 151.428701,15.3626161 C150.42871,16.3501123 149.923061,17.5575097 149.923061,19.0564615 C149.923061,20.4961141 150.375399,21.8591719 151.456972,22.9405586 C152.263103,23.7410976 153.374562,24.2434936 155.011056,24.2434936 C157.144315,24.2434936 158.678225,23.3474169 159.804224,21.496788 L158.588565,20.7226041 Z" id="Fill-47" fill="#E8BA19"></path><path d="M160.328694,22.2451108 C159.819813,23.3190851 159.613838,23.5076894 159.240659,23.619699 L159.256814,23.9441974 L162.245476,23.9441974 L162.245476,23.619699 C161.901376,23.6007562 161.795561,23.4393306 161.795561,23.2383723 C161.795561,23.0744759 161.875528,22.8669287 161.943379,22.7195043 L162.446605,21.6595313 L166.508762,21.6595313 L167.055606,22.7903339 C167.139612,22.9649371 167.193731,23.1148323 167.193731,23.2383723 C167.193731,23.4393306 167.055606,23.5768718 166.713122,23.619699 L166.713122,23.9441974 L170.155737,23.9441974 L170.155737,23.6007562 C169.684821,23.4129754 169.465114,23.0860063 169.27287,22.6799715 L165.140439,14.0115828 L164.184068,14.0115828 L160.328694,22.2451108 Z M165.754327,20.0856319 L163.189732,20.0856319 L164.451432,17.4064615 L165.754327,20.0856319 Z" id="Fill-49" fill="#E8BA19"></path><path d="M167.907617,16.6480084 L168.375302,16.6480084 C168.718595,16.1777329 169.129738,15.9454777 169.679005,15.9454777 L172.018239,15.9454777 L172.018239,22.7904163 C172.018239,23.1684486 171.812264,23.5077718 171.428584,23.562953 L171.428584,23.9442797 L174.776693,23.9442797 L174.776693,23.5777778 C174.336471,23.492947 174.183,23.097619 174.183,22.7031147 L174.183,15.9454777 L176.391378,15.9454777 C177.019805,15.9454777 177.432564,16.1332585 177.773433,16.6480084 L178.270197,16.6480084 L177.361482,14.3032195 L168.824409,14.3032195 L167.907617,16.6480084 Z" id="Fill-51" fill="#E8BA19"></path><path d="M178.06721,19.0307652 C178.06721,21.9504268 180.029226,24.2812144 183.374104,24.2812144 C186.101057,24.2812144 189.084872,22.6644879 189.084872,19.0678272 C189.084872,16.299708 187.016233,13.9763327 183.794133,13.9763327 C180.576071,13.9763327 178.06721,16.0781596 178.06721,19.0307652 M183.618044,15.5296421 C185.634179,15.5296421 186.937882,17.4527478 186.937882,19.5422207 C186.937882,21.634988 185.333697,22.7369647 183.513845,22.7369647 C181.42582,22.7369647 180.236009,20.7792677 180.236009,18.6741465 C180.236009,16.9231731 181.643912,15.5296421 183.618044,15.5296421" id="Fill-53" fill="#E8BA19"></path><path d="M189.657241,14.6424603 C190.049806,14.7635295 190.256589,15.0229635 190.256589,15.435587 L190.256589,22.6527928 C190.256589,23.1955451 190.065961,23.4928646 189.635432,23.5776954 L189.635432,23.9441974 L196.836492,23.9441974 L197.698357,21.5516397 L197.234711,21.5351677 C197.008542,21.9420261 196.612746,22.341472 195.852657,22.341472 L192.420542,22.341472 L192.420542,15.6077194 C192.420542,14.9521339 192.721831,14.7388215 193.010197,14.6564615 L193.010197,14.3031372 L189.657241,14.3031372 L189.657241,14.6424603 Z" id="Fill-55" fill="#E8BA19"></path><path d="M197.714189,14.6891584 C198.112408,14.772342 198.300613,15.0375412 198.300613,15.6231207 L198.300613,22.8106768 C198.300613,23.1285864 198.14391,23.467086 197.740037,23.5774483 L197.740037,23.9439503 L201.042105,23.9439503 L201.042105,23.5617999 C200.588959,23.4530848 200.450834,23.0610512 200.450834,22.6080713 L200.450834,15.3628631 C200.450834,15.0227164 200.659233,14.7492812 201.015449,14.6891584 L201.015449,14.3028901 L197.714189,14.3028901 L197.714189,14.6891584 Z" id="Fill-57" fill="#E8BA19"></path><path d="M210.252434,20.7226041 C209.514154,21.7957547 208.500432,22.4900494 207.08526,22.4900494 C205.057009,22.4900494 203.769461,20.8897948 203.769461,18.8102052 C203.769461,16.6474319 205.322757,15.5907532 207.010947,15.5907532 C208.1426,15.5907532 209.491537,16.0931491 210.283936,17.4767969 L210.859052,17.4767969 L210.297668,14.2318134 L209.923681,14.2318134 L209.567465,14.6254942 C208.691868,14.2178122 207.728226,14.0119122 206.769431,14.0119122 C204.897075,14.0119122 203.769461,14.6889114 203.100647,15.3626161 C202.097426,16.3501123 201.593392,17.5575097 201.593392,19.0564615 C201.593392,20.4961141 202.043307,21.8591719 203.124879,22.9405586 C203.935857,23.7410976 205.0457,24.2434936 206.674117,24.2434936 C208.813838,24.2434936 210.352595,23.3474169 211.474554,21.496788 L210.252434,20.7226041 Z" id="Fill-59" fill="#E8BA19"></path><path d="M211.995712,22.2451108 C211.490063,23.3190851 211.284896,23.5076894 210.913332,23.619699 L210.93191,23.9441974 L213.917341,23.9441974 L213.917341,23.619699 C213.571626,23.6007562 213.465811,23.4393306 213.465811,23.2383723 C213.465811,23.0744759 213.54497,22.8669287 213.616052,22.7195043 L214.127355,21.6595313 L218.18305,21.6595313 L218.732318,22.7903339 C218.808246,22.9649371 218.866404,23.1148323 218.866404,23.2383723 C218.866404,23.4393306 218.732318,23.5768718 218.380948,23.619699 L218.380948,23.9441974 L221.821948,23.9441974 L221.821948,23.6007562 C221.356686,23.4129754 221.144249,23.0860063 220.946351,22.6799715 L216.805843,14.0115828 L215.850279,14.0115828 L211.995712,22.2451108 Z M217.427808,20.0856319 L214.863212,20.0856319 L216.117643,17.4064615 L217.427808,20.0856319 Z" id="Fill-61" fill="#E8BA19"></path><polygon id="Fill-63" fill="#E8BA19" points="187.363322 10.5578991 184.672718 10.5578991 182.85852 13.4017895 184.529747 13.4017895"></polygon><path d="M35.7823448,6.2327643 C36.5917067,10.2181641 37.2484046,13.602336 37.7144743,16.4907008 C36.348575,16.644714 35.2831574,17.7977538 35.2831574,19.2003444 C35.2831574,20.7034142 36.5133553,21.9198712 38.0286877,21.9198712 C38.1611581,21.9198712 38.2920131,21.9124588 38.4220603,21.8959868 C38.4923342,22.7978287 38.5319138,23.6280174 38.5319138,24.4013777 C38.5319138,30.316472 35.1490715,35.4615004 30.158006,38.1241989 C27.8567363,39.3497155 21.3737631,40.9771488 20.1056011,45.2524558 C18.8479398,40.9771488 12.3681976,39.3497155 10.0645046,38.1241989 C5.07586237,35.4615004 1.68817364,30.316472 1.68817364,24.4013777 C1.68817364,23.6280174 1.72613772,22.7978287 1.79964265,21.8959868 C1.92888209,21.9124588 2.05973702,21.9198712 2.19220744,21.9198712 C3.7156173,21.9198712 4.94500744,20.7034142 4.94500744,19.2003444 C4.94500744,17.7977538 3.88039758,16.644714 2.4991511,16.4907008 C2.97410603,13.602336 3.63484265,10.2181641 4.44016589,6.2327643 L35.7823448,6.2327643 Z" id="Fill-65" fill="#FEFEFE"></path><path d="M35.7823448,6.2327643 C36.5917067,10.2181641 37.2484046,13.602336 37.7144743,16.4907008 C36.348575,16.644714 35.2831574,17.7977538 35.2831574,19.2003444 C35.2831574,20.7034142 36.5133553,21.9198712 38.0286877,21.9198712 C38.1611581,21.9198712 38.2920131,21.9124588 38.4220603,21.8959868 C38.4923342,22.7978287 38.5319138,23.6280174 38.5319138,24.4013777 C38.5319138,30.316472 35.1490715,35.4615004 30.158006,38.1241989 C27.8567363,39.3497155 21.3737631,40.9771488 20.1056011,45.2524558 C18.8479398,40.9771488 12.3681976,39.3497155 10.0645046,38.1241989 C5.07586237,35.4615004 1.68817364,30.316472 1.68817364,24.4013777 C1.68817364,23.6280174 1.72613772,22.7978287 1.79964265,21.8959868 C1.92888209,21.9124588 2.05973702,21.9198712 2.19220744,21.9198712 C3.7156173,21.9198712 4.94500744,20.7034142 4.94500744,19.2003444 C4.94500744,17.7977538 3.88039758,16.644714 2.4991511,16.4907008 C2.97410603,13.602336 3.63484265,10.2181641 4.44016589,6.2327643 L35.7823448,6.2327643 Z" id="Fill-67" fill="#FEFEFE"></path><path d="M0.744725751,17.9513552 C1.43938772,13.6966382 2.26652012,9.47404163 3.11788491,5.25062144 C7.28504899,2.83665019 13.3819194,5.35933663 20.2114159,5.35933663 C26.8228208,5.35933663 32.8954588,2.74358341 37.0513145,5.03236748 C37.8178659,8.81186733 38.591687,12.593838 39.2112286,16.3931042 L39.4656687,17.9513552 C38.5844173,18.0477164 36.7904124,17.9390012 36.7904124,19.339121 C36.7904124,20.0185909 37.3412955,20.5662848 38.0254567,20.5662848 C38.5714934,20.5662848 39.7112236,20.3365004 39.799268,20.3274409 C39.9115448,21.7341494 40.0432074,23.1383872 40.0432074,24.5450958 C40.0432074,31.0482405 36.3275736,36.6833109 30.8744772,39.5906184 C25.1895574,42.6264076 23.5999124,42.1017745 22.1912025,44.7932989 C21.7760208,45.5707772 21.3891103,46.6282794 20.9117321,48.121466 C20.6645617,48.8849431 19.5256391,48.8338799 19.2800842,48.0580488 C18.8018983,46.5566262 18.3996405,45.503242 17.9796124,44.7265873 C16.5862497,42.1100105 14.9747955,42.5951108 9.33914829,39.5906184 C3.88928279,36.6833109 0.171225751,31.0482405 0.171225751,24.5450958 C0.171225751,23.1383872 0.299657441,21.7341494 0.416780681,20.3274409 C0.501594061,20.3365004 1.64455533,20.5662848 2.18493772,20.5662848 C2.87313772,20.5662848 3.42240533,20.0185909 3.42240533,19.339121 C3.42240533,17.9390012 1.63001589,18.0477164 0.744725751,17.9513552" id="Fill-69" fill="#1D1D1B"></path><path d="M36.1463153,0.609141959 C36.1519696,0.614907158 36.2367829,1.06129829 36.3482519,1.6822926 C32.2238984,-0.0200883498 26.47759,2.3774109 20.2110928,2.3774109 C13.7386203,2.3774109 7.92849984,0.114982031 3.78718364,1.91784217 C3.88895969,1.29437706 3.99477448,0.787039533 3.99477448,0.774685535 C8.11670477,-0.926048218 13.8113174,1.38085505 20.2110928,1.38085505 C26.3782372,1.38085505 32.037309,-0.942520216 36.1463153,0.609141959" id="Fill-71" fill="#1D1D1B"></path><polygon id="Fill-73" fill="#FEFEFE" points="35.7823448 6.2327643 21.7727898 6.2327643 20.0595596 6.2410003 18.3366363 6.2327643 4.44016589 6.2508835"></polygon><path d="M3.09025998,5.26561096 C7.26388603,2.82940252 13.3647952,5.35950135 20.2112543,5.35950135 C26.8275058,5.35950135 32.905798,2.73963013 37.0632691,5.03665019 C37.0632691,5.03665019 36.4098022,1.68871668 36.3613374,1.68871668 C32.2369839,-0.0260182689 26.485829,2.37806978 20.2112543,2.37806978 C13.7129339,2.37806978 7.88423533,0.0999925127 3.74453462,1.94238544 C3.80026913,1.97532944 3.09025998,5.26561096 3.09025998,5.26561096" id="Fill-75" fill="#FBC020"></path><path d="M3.81715103,32.1701482 L36.3612567,32.2541554 C34.8871193,34.7060123 32.7425524,36.7304208 30.1747264,38.105009 C27.8726489,39.3288784 21.3888679,40.9505466 20.1247447,45.2382075 C18.8654679,40.9505466 12.3881489,39.3288784 10.081225,38.105009 C7.47866582,36.7188904 5.29290385,34.6582435 3.81715103,32.1701482" id="Fill-77" fill="#FBC020"></path><path d="M4.93765695,19.5101003 C4.93765695,19.5101003 35.3040781,19.5273959 35.2935774,19.5158655 C35.4656274,20.9168089 36.6190893,21.9199536 38.0286069,21.9199536 C38.1610774,21.9199536 38.2919323,21.9133648 38.4219795,21.8952456 C38.4922534,22.7979111 38.531833,23.6280997 38.531833,24.4006364 C38.531833,27.2659404 37.7418569,29.9492288 36.352533,32.2553085 L3.86739286,32.2553085 C2.4829154,29.9492288 1.68809286,27.2659404 1.68809286,24.4006364 C1.68809286,23.6280997 1.72605695,22.7979111 1.79794638,21.8952456 C1.92880131,21.9133648 2.05965624,21.9199536 2.19212667,21.9199536 C3.64526258,21.9199536 4.77287667,20.8319781 4.93765695,19.5101003" id="Fill-79" fill="#FEFEFE"></path><path d="M4.94516899,19.5583633 L4.94516899,19.1992737 C4.94516899,17.7975067 3.88055913,16.6436433 2.49931265,16.4871593 C2.97265209,13.6070305 3.70366265,9.94612908 4.5073704,5.96484726 L35.6960774,5.99202606 C36.5038239,9.97248428 37.2485662,13.6070305 37.7146359,16.4871593 C36.3479288,16.6436433 35.2825112,17.7975067 35.2825112,19.1992737 C35.2825112,19.1992737 35.2825112,19.4257637 35.3043204,19.5509509 C35.219507,19.5509509 4.94516899,19.5583633 4.94516899,19.5583633" id="Fill-81" fill="#0070B8"></path><polygon id="Fill-83" fill="#1D1D1B" points="34.3103884 19.5442797 34.3103884 22.4746481 21.5269926 22.4746481 21.5269926 45.5313267 18.565794 45.5354447 18.565794 22.4746481 5.9003292 22.4746481 5.9003292 19.5442797 18.565794 19.5442797 18.565794 14.689982 10.7976961 14.689982 10.7976961 11.7571429 18.565794 11.7571429 18.565794 5.83051812 21.5269926 5.83051812 21.5269926 11.7571429 29.4453313 11.7571429 29.4453313 14.689982 21.5269926 14.689982 21.5269926 19.5442797"></polygon><path d="M5.64047716,2.56395627 L5.78991026,2.52936508 C5.77456308,2.44947589 5.7454842,2.3868823 5.71398209,2.33252471 C5.67924899,2.27981432 5.64047716,2.23781072 5.59282012,2.20239593 C5.5508173,2.17439353 5.49750603,2.14803833 5.44096378,2.13815514 C5.38846026,2.13733154 5.33272575,2.13733154 5.27214477,2.14556754 C5.217218,2.15545073 5.16309899,2.17439353 5.11624969,2.19827793 C5.07020815,2.22216232 5.02820533,2.26004792 4.99670322,2.30040431 C4.96197012,2.34240791 4.93612223,2.3984127 4.91835181,2.44947589 C4.90623561,2.50795148 4.90623561,2.57713387 4.91835181,2.64713986 C4.93127575,2.71796945 4.95146941,2.76656184 4.97893279,2.80856544 C5.01124265,2.85386343 5.04597575,2.87610063 5.08070885,2.90163223 C5.12513491,2.92551662 5.17117646,2.94034142 5.22044899,2.95022462 C5.26729829,2.96175502 5.31414758,2.96257862 5.36018913,2.97328541 C5.41511589,2.97328541 5.46358068,2.97987421 5.51204547,2.98069781 C5.55485603,2.98728661 5.59847434,2.99716981 5.64047716,3.01117101 C5.67521026,3.02517221 5.71398209,3.044115 5.73821448,3.0721174 C5.76406237,3.0992962 5.78587153,3.13965259 5.78991026,3.19153938 C5.80687293,3.24095538 5.80364195,3.28460617 5.78991026,3.32496256 C5.77698631,3.36367176 5.76244688,3.39496855 5.73821448,3.41967655 C5.71398209,3.44191375 5.67924899,3.46085654 5.64047716,3.47156334 C5.61139829,3.49215334 5.57504969,3.50121294 5.54112434,3.50780174 C5.49750603,3.51439054 5.45792646,3.51768494 5.40865392,3.50780174 C5.36018913,3.50615454 5.32222505,3.49050614 5.28749195,3.46744534 C5.25114336,3.44191375 5.22044899,3.41226415 5.18813913,3.37190776 C5.16309899,3.32660976 5.14855955,3.28295897 5.13402012,3.21048218 L4.98620251,3.24095538 C5.00397293,3.33155136 5.02820533,3.40238095 5.06213068,3.46744534 C5.10332575,3.52592093 5.14855955,3.57368973 5.19702434,3.60416292 C5.25275885,3.64122492 5.30849336,3.66181491 5.3682666,3.67416891 C5.43692505,3.68322851 5.49750603,3.68158131 5.56777998,3.66922731 C5.62109124,3.65934412 5.66713279,3.64122492 5.72448279,3.61486972 C5.77456308,3.58851453 5.81737364,3.55886493 5.85937646,3.51768494 C5.89734054,3.47156334 5.92399617,3.42214735 5.9417666,3.36367176 C5.95711378,3.30437257 5.9643835,3.23519018 5.94499758,3.15694819 C5.93692012,3.0803534 5.91268772,3.03011381 5.88764758,2.98069781 C5.85533772,2.93457622 5.81737364,2.90163223 5.77456308,2.87610063 C5.73821448,2.85386343 5.69136519,2.83409704 5.64047716,2.82091944 C5.59847434,2.81103624 5.54516308,2.80444744 5.49427505,2.80444744 C5.44419477,2.79703504 5.40219195,2.78715184 5.35291941,2.78138664 C5.30607012,2.78138664 5.26083631,2.77891584 5.22367998,2.75997305 C5.18490815,2.75091345 5.15179054,2.73855945 5.12109617,2.70973345 C5.09928702,2.69079066 5.08070885,2.65043426 5.07586237,2.60266547 C5.06213068,2.56395627 5.06213068,2.51618748 5.07586237,2.48159629 C5.08070885,2.44947589 5.09928702,2.4214735 5.11705744,2.3984127 C5.14532857,2.3745283 5.16309899,2.3539383 5.19702434,2.33746631 C5.2293342,2.32346511 5.25518209,2.31852351 5.29153068,2.31193471 C5.37634406,2.29546271 5.44419477,2.30864031 5.50639124,2.34652591 C5.56777998,2.3868823 5.61139829,2.45194669 5.64047716,2.56395627" id="Fill-85" fill="#1D1D1B"></path><path d="M6.41397519,2.03034591 L6.04887378,3.54824049 L6.21769279,3.53588649 L6.31785336,3.07961216 L6.82592589,3.04419736 L6.98747519,3.4815289 L7.15790969,3.4699985 L6.58925617,2.02540431 L6.41397519,2.03034591 Z M6.35824068,2.91489218 L6.50928927,2.20824349 L6.51252026,2.20824349 L6.76534491,2.88524259 L6.35824068,2.91489218 Z" id="Fill-87" fill="#1D1D1B"></path><path d="M7.29700364,1.97524708 L7.29700364,3.46019766 L7.45774519,3.46019766 L7.45774519,2.85238095 L7.81961561,2.85238095 C7.93996984,2.85485175 8.03205293,2.81696616 8.09182617,2.73954777 C8.16048462,2.65471698 8.19037124,2.5534142 8.19037124,2.41422582 C8.19037124,2.27997904 8.16048462,2.16549865 8.09182617,2.09219826 C8.03205293,2.01395627 7.93996984,1.97524708 7.81961561,1.97524708 L7.29700364,1.97524708 Z M7.45774519,2.69013178 L7.45774519,2.13831986 L7.77115082,2.13831986 C7.85677195,2.13831986 7.92785364,2.16549865 7.96258674,2.21162025 C8.00378181,2.26021264 8.03205293,2.32280623 8.03205293,2.41422582 C8.03205293,2.502351 8.00378181,2.56906259 7.96258674,2.61765499 C7.92785364,2.66130578 7.85677195,2.69013178 7.77115082,2.69013178 L7.45774519,2.69013178 Z" id="Fill-89" fill="#1D1D1B"></path><polygon id="Fill-91" fill="#1D1D1B" points="8.46015857 2.00497904 8.40765505 3.48992962 8.57162758 3.49322402 8.61766913 2.01074423"></polygon><polygon id="Fill-93" fill="#1D1D1B" points="8.98196279 2.02828691 8.85030012 3.5058251 9.68147124 3.57336029 9.6911642 3.41193471 9.02154237 3.35098832 9.06758392 2.83706199 9.68954871 2.89306679 9.70247265 2.72917041 9.0829311 2.67234202 9.12574167 2.20783169 9.78809378 2.26548368 9.80667195 2.0982929"></polygon><polygon id="Fill-95" fill="#1D1D1B" points="10.0574772 2.12481282 9.90481315 3.5998802 10.0534385 3.6114106 10.1818702 2.42872117 10.6786343 3.67812219 10.851492 3.69294699 11.0081948 2.2178796 10.8555308 2.20799641 10.7287146 3.40139263 10.7279068 3.40139263 10.2287195 2.13716682"></polygon><polygon id="Fill-97" fill="#1D1D1B" points="11.5818564 2.46907757 11.3968824 3.77942498 11.5568162 3.79836777 11.7393669 2.49460916 12.1367782 2.55308476 12.1602029 2.38589398 11.2127162 2.2508236 11.1892916 2.41801438"></polygon><polygon id="Fill-99" fill="#1D1D1B" points="12.3462269 2.40310722 12.1362128 3.8740566 12.2953388 3.8954702 12.5021219 2.42369721"></polygon><path d="M13.1413725,2.51206948 L12.4709429,3.92124888 L12.6292612,3.94019167 L12.8263514,3.51768494 L13.3263465,3.58851453 L13.3974281,4.04808326 L13.5702859,4.07279125 L13.3158458,2.53842468 L13.1413725,2.51206948 Z M12.8998563,3.35625936 L13.1922605,2.70314465 L13.2019535,2.70314465 L13.2980753,3.41226415 L12.8998563,3.35625936 Z" id="Fill-101" fill="#1D1D1B"></path><path d="M14.7690624,2.74333633 L14.0986329,4.14922132 L14.2609899,4.17310572 L14.4540413,3.75224618 L14.9596906,3.81731057 L15.0267336,4.27770291 L15.1979758,4.3015873 L14.9435357,2.76557353 L14.7690624,2.74333633 Z M14.528354,3.58752621 L14.8256047,2.9302935 L14.8288357,2.9302935 L14.929804,3.6468254 L14.528354,3.58752621 Z" id="Fill-103" fill="#1D1D1B"></path><polygon id="Fill-105" fill="#1D1D1B" points="15.560654 2.84463911 15.3829498 4.3164121 16.2092744 4.41277329 16.2238138 4.25217131 15.557423 4.16569332 15.6268892 3.66165019 16.2407765 3.73330338 16.2593547 3.57352501 15.6414286 3.49693022 15.7060484 3.03077269 16.360323 3.10983827 16.3821322 2.9442947"></polygon><path d="M16.6145208,2.96249626 L16.4529715,4.44168164 L16.8673455,4.48450883 C16.967506,4.49603923 17.0515117,4.48450883 17.1306708,4.46144804 C17.206599,4.43426924 17.270411,4.38732405 17.32453,4.33379006 C17.3778412,4.26872567 17.4182286,4.19048368 17.4537694,4.09988769 C17.483656,4.0051737 17.5086962,3.89728212 17.5191969,3.77291854 C17.547468,3.53572177 17.5159659,3.3512354 17.4279215,3.23181342 C17.3414927,3.10003744 17.206599,3.03167865 17.0240483,3.00614705 L16.6145208,2.96249626 Z M16.6322912,4.29508086 L16.7574919,3.14780623 L17.0240483,3.17663223 C17.0975532,3.18404462 17.1532877,3.20710542 17.203368,3.23840222 C17.251025,3.26805181 17.2865659,3.30593741 17.3124138,3.3635894 C17.3382617,3.41218179 17.3584553,3.47148098 17.3641096,3.54313417 C17.3705715,3.61478736 17.3705715,3.69302935 17.3600708,3.77950734 C17.3495701,3.87422132 17.3374539,3.94669811 17.3124138,4.0191749 C17.2889891,4.07517969 17.26718,4.12953729 17.2405243,4.16495208 C17.2106377,4.21025007 17.1791356,4.23742887 17.146018,4.25884247 C17.1185546,4.27778527 17.082206,4.29672806 17.0515117,4.30825846 C17.0240483,4.31567086 16.9868919,4.32061246 16.967506,4.32061246 L16.8980398,4.32061246 L16.6322912,4.29508086 Z" id="Fill-107" fill="#1D1D1B"></path><polygon id="Fill-109" fill="#1D1D1B" points="17.8182246 3.07425876 17.7180641 4.55591494 17.8723436 4.56415094 17.9813894 3.08578916"></polygon><polygon id="Fill-111" fill="#1D1D1B" points="18.2784786 3.09962564 18.2009349 4.58045822 18.3592532 4.58622342 18.3996405 3.90840072 18.9472927 3.94052111 18.9561779 3.77580114 18.401256 3.74697514 18.4295272 3.28246481 19.0579539 3.30552561 19.0660314 3.14327643"></polygon><polygon id="Fill-113" fill="#1D1D1B" points="19.2885655 3.15711291 19.236062 4.63959269 19.3984191 4.64535789 19.4525381 3.16370171"></polygon><path d="M20.5858064,3.60753968 L20.7417015,3.60753968 C20.7344317,3.53012129 20.7134303,3.4601153 20.6883902,3.40163971 C20.6552726,3.34151692 20.6229627,3.28468853 20.5793444,3.24597934 C20.5349184,3.21056454 20.4872613,3.17597335 20.4323346,3.15703055 C20.3774078,3.13232255 20.31925,3.12161575 20.2505916,3.12161575 C20.160124,3.12161575 20.0817726,3.14714735 20.0050367,3.18668014 C19.9379937,3.23115454 19.8757972,3.28221773 19.8281402,3.35057652 C19.7796754,3.42222971 19.7530198,3.5070605 19.7215177,3.60259808 C19.698093,3.69566487 19.6867846,3.79861485 19.6867846,3.90897724 C19.6867846,4.01933962 19.698093,4.11734801 19.7182867,4.20959119 C19.7409036,4.30512878 19.7788677,4.38748877 19.822486,4.45749476 C19.8717585,4.52173555 19.927493,4.57362234 19.9969592,4.61974394 C20.0640022,4.65762953 20.1447768,4.67492513 20.2376677,4.67492513 C20.389524,4.67492513 20.5147247,4.62962713 20.5987303,4.52173555 C20.6883902,4.41219677 20.7417015,4.27218479 20.7594719,4.08522761 L20.5946916,4.08522761 C20.5946916,4.1437032 20.5858064,4.203826 20.5664205,4.25571279 C20.5510733,4.30842318 20.5316874,4.35372117 20.4961465,4.39325397 C20.4694909,4.43031596 20.4323346,4.46161276 20.389524,4.48055556 C20.3547909,4.50361635 20.3095571,4.51514675 20.2505916,4.51514675 C20.1795099,4.51514675 20.1221599,4.49620395 20.0640022,4.46490716 C20.0155374,4.43031596 19.9743423,4.38748877 19.9388015,4.33313118 C19.9097226,4.27712639 19.8838747,4.20959119 19.8652965,4.13299641 C19.8523726,4.05393082 19.8459106,3.97486523 19.8459106,3.89085804 C19.8459106,3.81343965 19.8523726,3.73849206 19.8652965,3.66930967 C19.8838747,3.59600928 19.9097226,3.53012129 19.9388015,3.4774109 C19.9743423,3.42222971 20.0114986,3.37199012 20.0640022,3.34151692 C20.1165057,3.30445493 20.1795099,3.28880653 20.2505916,3.28880653 C20.335405,3.28880653 20.4072944,3.31598532 20.4694909,3.37199012 C20.5316874,3.42222971 20.5664205,3.5054133 20.5858064,3.60753968" id="Fill-115" fill="#1D1D1B"></path><path d="M21.2764296,3.14467655 L20.8911346,4.65104073 L21.0510684,4.63951033 L21.1641529,4.1898248 L21.6665712,4.1651168 L21.826505,4.60327194 L21.998555,4.58597634 L21.4517106,3.13232255 L21.2764296,3.14467655 Z M21.2029247,4.01933962 L21.3733592,3.31680892 L21.6092212,3.99957323 L21.2029247,4.01933962 Z" id="Fill-117" fill="#1D1D1B"></path><polygon id="Fill-119" fill="#1D1D1B" points="22.5704395 4.54899671 22.8878838 3.03769093 22.7231036 3.04839772 22.4678557 4.35874513 22.4622015 4.35874513 22.0324803 3.09946092 21.8612381 3.11428571 22.3911198 4.5638215"></polygon><polygon id="Fill-121" fill="#1D1D1B" points="23.0350553 3.01075921 23.1917581 4.4841794 23.3492686 4.468531 23.1917581 2.99675801"></polygon><polygon id="Fill-123" fill="#1D1D1B" points="23.7915098 3.08957772 23.9570979 4.39992513 24.1089542 4.38180593 23.9570979 3.07392932 24.3512781 3.03110213 24.3254303 2.85896975 23.3730972 2.97756813 23.3949063 3.14311171"></polygon><path d="M25.747791,3.11453279 L25.8972241,3.0890012 C25.8843002,3.00581761 25.8584523,2.94322402 25.8261424,2.88474843 C25.7954481,2.82874364 25.7566762,2.78674004 25.7138657,2.75709045 C25.6670164,2.72249925 25.6177438,2.70273285 25.5676636,2.69037886 C25.5127368,2.67802486 25.4529636,2.67225966 25.3939981,2.69037886 C25.3382636,2.69367326 25.28576,2.70932165 25.2364875,2.73814765 C25.1896382,2.75709045 25.1411734,2.79085804 25.1104791,2.82874364 C25.0741305,2.87239443 25.0466671,2.92345762 25.0345509,2.97946241 C25.015165,3.03793801 25.0095108,3.099708 25.0216269,3.17630279 C25.0345509,3.24630878 25.0466671,3.29737197 25.0749382,3.34102276 C25.1032093,3.38302636 25.1411734,3.41185235 25.1831762,3.43820755 C25.2187171,3.46044474 25.2679896,3.47774034 25.3108002,3.49009434 C25.362496,3.49585954 25.410153,3.50738994 25.45781,3.51397874 C25.5022361,3.51727314 25.5515086,3.52633273 25.5975502,3.52962713 C25.6500537,3.53621593 25.6944798,3.54774633 25.7332516,3.56586553 C25.7712157,3.57574873 25.8011023,3.60210392 25.8261424,3.62845912 C25.8584523,3.65893232 25.872184,3.69599431 25.8762227,3.7519991 C25.8851079,3.80141509 25.8843002,3.84753669 25.872184,3.88542228 C25.8584523,3.92083708 25.8374509,3.94636867 25.8132185,3.97519467 C25.7914093,3.99907907 25.7550608,4.01884546 25.7179044,4.02955226 C25.6864023,4.04108266 25.6500537,4.05014226 25.6161284,4.05343666 C25.5717023,4.06496706 25.5224298,4.06167266 25.4836579,4.05343666 C25.4384241,4.04767146 25.3980368,4.02955226 25.362496,4.00484426 C25.3261474,3.97684187 25.2962608,3.94307427 25.2736438,3.90848308 C25.2437572,3.86812668 25.2276023,3.80965109 25.2162938,3.7519991 L25.0733227,3.7725891 C25.0846312,3.85741989 25.1032093,3.93813267 25.1411734,3.99907907 C25.1759065,4.06167266 25.2162938,4.10861785 25.2736438,4.14403264 C25.3180699,4.18027104 25.3762277,4.20333184 25.4384241,4.21650943 C25.5022361,4.22639263 25.5676636,4.22803983 25.6338988,4.22145103 C25.6864023,4.21239143 25.7421368,4.19756664 25.7930248,4.17532944 C25.8463361,4.14979784 25.8907622,4.11767745 25.9343805,4.07485025 C25.9699213,4.03531746 26.0022312,3.98672507 26.0200016,3.92742588 C26.0434262,3.86977388 26.047465,3.79894429 26.0353488,3.71905511 C26.0200016,3.64657832 26.0022312,3.58810273 25.9755755,3.54280473 C25.9489199,3.49585954 25.9109558,3.46044474 25.872184,3.43408955 C25.8326044,3.41185235 25.7914093,3.38632075 25.7421368,3.37561396 C25.6944798,3.36325996 25.6435917,3.35502396 25.591896,3.35090596 C25.5458544,3.34102276 25.4998129,3.33690476 25.4529636,3.33113956 C25.4028833,3.32537436 25.362496,3.31219677 25.3180699,3.30396077 C25.2841446,3.28501797 25.2486037,3.27184037 25.2276023,3.24630878 C25.2017544,3.21995358 25.1855995,3.18289158 25.1783298,3.13841719 C25.1694446,3.0890012 25.1759065,3.0478212 25.1831762,3.01487721 C25.1944847,2.98028601 25.2074086,2.95557802 25.2308333,2.92592842 C25.2558734,2.90780922 25.2841446,2.88969003 25.3108002,2.87568883 C25.3439178,2.86498203 25.3762277,2.85592243 25.410153,2.85262803 C25.4901199,2.83697963 25.5595861,2.85592243 25.6177438,2.89710243 C25.6791326,2.93004642 25.7179044,3.00581761 25.747791,3.11453279" id="Fill-125" fill="#1D1D1B"></path><polygon id="Fill-127" fill="#1D1D1B" points="26.1086922 2.61781971 26.3461696 4.08547469 26.5012569 4.0615903 26.2710492 2.59722971"></polygon><path d="M26.946406,3.81747529 L26.8640159,3.31260857 L27.2226553,3.25660377 L27.3268546,3.25660377 C27.3518948,3.25660377 27.3850124,3.26731057 27.4124758,3.28295897 C27.4350927,3.29778377 27.462556,3.31672656 27.478711,3.35131776 C27.4980969,3.37437856 27.5118286,3.41144055 27.5207138,3.46003294 C27.5320222,3.54321653 27.5247525,3.61075172 27.4940581,3.66263851 C27.462556,3.71946691 27.4124758,3.7515873 27.3381631,3.7631177 L26.946406,3.81747529 Z M26.5780736,2.54830788 L26.8139356,4.01102126 L27.3890511,3.92207248 C27.4431701,3.90807128 27.4940581,3.89077568 27.5376765,3.86112609 C27.5788715,3.83065289 27.6087581,3.7944145 27.634606,3.7515873 C27.6580307,3.70793651 27.6774166,3.65934412 27.6854941,3.60251572 C27.6927638,3.54980533 27.6927638,3.49627134 27.6774166,3.44109015 C27.6644927,3.35131776 27.634606,3.28295897 27.5861412,3.22448338 C27.5376765,3.16600779 27.47548,3.13224019 27.3979363,3.12894579 L27.3979363,3.11906259 C27.4504398,3.085295 27.4851729,3.03834981 27.5045588,2.97657981 C27.5320222,2.91728062 27.5320222,2.84398023 27.5207138,2.76573824 C27.5069821,2.69408506 27.4851729,2.63560946 27.4504398,2.58207547 C27.4124758,2.54171908 27.3801659,2.50712788 27.3317011,2.48159629 C27.3147384,2.47171309 27.2913138,2.46841869 27.2638504,2.46018269 L27.1846912,2.46018269 C27.1539969,2.46018269 27.1176483,2.46512429 27.0926081,2.46924229 C27.0659525,2.46924229 27.0352581,2.47171309 27.013449,2.47665469 L26.5780736,2.54830788 Z M26.8357448,3.15365379 L26.7670863,2.68337826 L27.0804919,2.63725666 C27.1176483,2.63560946 27.1507659,2.63231506 27.1798448,2.63231506 C27.2105391,2.63231506 27.2323483,2.63725666 27.2638504,2.64713986 C27.2913138,2.65455226 27.3139307,2.68255466 27.3284701,2.70973345 C27.3486638,2.73855945 27.364011,2.77891584 27.3672419,2.82915544 C27.3842046,2.90739742 27.3672419,2.96175502 27.3381631,3.01446541 C27.3026222,3.0581162 27.249311,3.089413 27.1564201,3.0992962 L26.8357448,3.15365379 Z" id="Fill-129" fill="#1D1D1B"></path><polygon id="Fill-131" fill="#1D1D1B" points="27.767965 2.3597035 28.0046347 3.83147649 28.1605298 3.80512129 27.9319375 2.33911351"></polygon><path d="M28.7634317,2.21771488 L28.9661761,3.68372267 L29.3748958,3.62112908 C29.4742486,3.61454028 29.555831,3.57994909 29.626105,3.54206349 C29.6907247,3.4967655 29.7432282,3.43828991 29.7787691,3.36746032 C29.8159254,3.29415993 29.8401578,3.21097634 29.8474275,3.11543875 C29.858736,3.01495957 29.8530817,2.90130279 29.8361191,2.77941 C29.8021937,2.54386044 29.7303043,2.37419886 29.613181,2.27124888 C29.5009043,2.17571129 29.3482402,2.1287661 29.1681127,2.15594489 L28.7634317,2.21771488 Z M29.0994543,3.4967655 L28.941136,2.35525606 L29.2076923,2.31901767 C29.2811972,2.31160527 29.3474324,2.31489967 29.3983205,2.33301887 C29.4459775,2.35443246 29.4960578,2.38243486 29.5364451,2.42855645 C29.5760247,2.46973645 29.6059113,2.52903564 29.6277205,2.59739443 C29.6487219,2.66081162 29.6713388,2.73987721 29.6778008,2.8197664 C29.6931479,2.92271638 29.6988022,2.99684037 29.6907247,3.06519916 C29.6842627,3.12861635 29.676993,3.18379754 29.6624536,3.23156634 C29.6462986,3.27604073 29.616412,3.31392633 29.5970261,3.34110512 C29.5639085,3.37240192 29.5412916,3.39628631 29.5130205,3.41193471 C29.4807106,3.42346511 29.4597092,3.43828991 29.4306303,3.44487871 C29.4055902,3.45311471 29.3797423,3.4564091 29.3668184,3.4605271 L29.0994543,3.4967655 Z" id="Fill-133" fill="#1D1D1B"></path><path d="M30.0168927,2.79678796 C30.0273934,2.89314915 30.0524336,2.98868673 30.0839357,3.07928272 C30.121092,3.16905511 30.1630948,3.2464735 30.2180216,3.31236149 C30.2713329,3.38319108 30.3359526,3.43425427 30.4159195,3.47049266 C30.4950786,3.50590746 30.5742378,3.51496706 30.6727829,3.50590746 C30.7608272,3.49684786 30.8448329,3.46719826 30.9102603,3.42025307 C30.9756878,3.36589548 31.0314223,3.30494909 31.0766561,3.2316487 C31.1146202,3.14764151 31.1412758,3.06528152 31.1541998,2.96892034 C31.1687392,2.87255915 31.1711624,2.77949236 31.159854,2.67242438 C31.1461223,2.57688679 31.1291596,2.47723121 31.0944265,2.38745882 C31.0572702,2.29521563 31.0120364,2.21779724 30.9587251,2.15602725 C30.9046061,2.08355046 30.8367554,2.03084007 30.7608272,2.00201408 C30.6865146,1.96330488 30.5984702,1.94848008 30.5104258,1.95918688 C30.4070343,1.97154088 30.3319138,2.00201408 30.2664864,2.05143007 C30.1962124,2.10002246 30.1420934,2.16591045 30.1057448,2.24250524 C30.0677808,2.31827643 30.0370864,2.40310722 30.019316,2.4978212 C30.009623,2.59665319 30.009623,2.69383798 30.0168927,2.79678796 M30.1776343,2.77949236 C30.1695568,2.70289757 30.1695568,2.63206798 30.1776343,2.5562968 C30.181673,2.48134921 30.1994434,2.41463762 30.2301378,2.35369122 C30.2567934,2.29192123 30.2923343,2.24250524 30.3424146,2.19803085 C30.3965336,2.15602725 30.4522681,2.13708446 30.5233498,2.12637766 C30.5984702,2.11731806 30.6598589,2.12884846 30.7147857,2.16261605 C30.7753667,2.18979485 30.8173695,2.23674004 30.8626033,2.28697963 C30.8989519,2.33886643 30.9344927,2.40310722 30.9530709,2.47228961 C30.9756878,2.5488844 30.9918427,2.61806679 31.0023434,2.69383798 C31.0079977,2.75972597 31.0079977,2.83714435 31.0023434,2.91785714 C30.9918427,2.98703953 30.9756878,3.05539832 30.9466089,3.11634471 C30.9223765,3.17646751 30.8852202,3.2316487 30.8311012,3.27282869 C30.7866751,3.31236149 30.7277096,3.33130428 30.6566279,3.34201108 C30.579892,3.35107068 30.51608,3.33624588 30.4579223,3.31236149 C30.4038033,3.28271189 30.356954,3.2382375 30.3149512,3.1838799 C30.2810258,3.12869871 30.2462927,3.06857592 30.2196371,2.99692273 C30.1994434,2.92609314 30.181673,2.85279275 30.1776343,2.77949236" id="Fill-135" fill="#1D1D1B"></path><polygon id="Fill-137" fill="#1D1D1B" points="31.3760069 1.92336029 31.4583971 3.40172207 31.6045992 3.39513327 31.5399795 2.16549865 31.5432105 2.16549865 31.9810091 3.37454328 32.1199415 3.37207248 32.4268851 2.11772986 32.4947358 3.35065888 32.6441689 3.34324648 32.570664 1.8599431 32.3469182 1.87229709 32.0351281 3.13899371 31.5932908 1.90853549"></polygon><path d="M33.8627353,2.85872267 L33.9168543,1.91899521 L33.7536895,1.90911201 L33.7084557,2.85625187 C33.6995705,2.98720425 33.6648374,3.08521264 33.6074874,3.15439503 C33.5582148,3.21369422 33.4734015,3.24663822 33.3748564,3.24663822 C33.2666184,3.23840222 33.1834205,3.19886942 33.1284937,3.12886343 C33.0759902,3.05803384 33.0566043,2.95590746 33.0566043,2.82083708 L33.1107233,1.87205001 L32.9515972,1.87040282 L32.9023247,2.81095388 C32.8877853,3.00614705 32.9249416,3.15768943 33.0049085,3.24993261 C33.0921451,3.3429994 33.2076529,3.39982779 33.3627402,3.40724019 C33.5145965,3.41218179 33.6333353,3.372649 33.7213796,3.28287661 C33.8045775,3.19145702 33.85385,3.04815064 33.8627353,2.85872267" id="Fill-139" fill="#1D1D1B"></path><polygon id="Fill-141" fill="#1D1D1B" points="34.2867214 1.94304432 34.0516672 3.40163971 34.1994848 3.42222971 34.3941517 2.21236149 34.3965749 2.21236149 34.5710481 3.4897649 34.7059418 3.5070605 35.2673256 2.34660827 35.2762108 2.35072627 35.0791207 3.56635969 35.2293615 3.58859689 35.4660312 2.1234127 35.2471319 2.0879979 34.6760552 3.26245133 34.5023897 1.97598832"></polygon><polygon id="Fill-145" fill="#FFFFFF" points="146.701526 40.8493261 147.3453 40.8493261 148.93656 47.2701108 148.955946 47.2701108 150.584363 40.8493261 151.18048 40.8493261 149.296008 48.0912399 148.604577 48.0912399"></polygon><path d="M152.078694,48.0907457 L152.627962,48.0907457 L152.627962,42.7604073 L152.078694,42.7604073 L152.078694,48.0907457 Z M152.04073,41.7663223 L152.675619,41.7663223 L152.675619,40.848832 L152.04073,40.848832 L152.04073,41.7663223 Z" id="Fill-147" fill="#FFFFFF"></path><path d="M154.387718,45.4836403 C154.387718,46.2372342 154.407104,47.7337152 155.457982,47.7337152 C156.462011,47.7246556 156.471704,46.2652366 156.471704,45.5618823 C156.471704,44.7028676 156.575096,43.1182615 155.382054,43.1182615 C154.407104,43.1182615 154.387718,44.8478212 154.387718,45.4836403 Z M156.471704,42.7599955 L157.020164,42.7599955 L157.020164,47.9742063 C157.020164,49.1346586 156.632446,49.9162549 155.400632,49.9162549 C154.653467,49.9162549 153.990307,49.5497529 153.952343,48.7088574 L154.511303,48.7088574 C154.539575,49.191487 154.975758,49.4047993 155.411133,49.4229185 C156.546825,49.4229185 156.442625,48.4576595 156.471704,47.7139488 L156.43374,47.7139488 C156.149413,48.0911575 155.751194,48.2262279 155.334397,48.2262279 C153.914379,48.2262279 153.838451,46.5946765 153.838451,45.4836403 C153.838451,44.4706125 153.876415,42.6249251 155.296433,42.6249251 C155.827122,42.6249251 156.168799,42.8192947 156.452318,43.2434486 L156.471704,43.2434486 L156.471704,42.7599955 Z" id="Fill-149" fill="#FFFFFF"></path><path d="M158.382348,48.0907457 L158.931615,48.0907457 L158.931615,42.7604073 L158.382348,42.7604073 L158.382348,48.0907457 Z M158.344384,41.7663223 L158.979272,41.7663223 L158.979272,40.848832 L158.344384,40.848832 L158.344384,41.7663223 Z" id="Fill-150" fill="#FFFFFF"></path><polygon id="Fill-151" fill="#FFFFFF" points="160.483296 48.0907457 161.032564 48.0907457 161.032564 40.848832 160.483296 40.848832"></polygon><path d="M164.374534,45.2134172 C164.015087,45.4168464 163.645947,45.5519167 163.285692,45.7059299 C162.726731,45.9563043 162.603954,46.1786763 162.603954,46.807083 C162.603954,47.3275981 162.764695,47.7344564 163.332541,47.7344564 C163.692796,47.7344564 163.948852,47.5796196 164.109593,47.3383049 C164.337378,46.9998053 164.374534,46.5468254 164.374534,46.1506739 L164.374534,45.2134172 Z M162.19685,44.102381 C162.168578,43.1667715 162.679882,42.6248428 163.588597,42.6248428 C164.023972,42.6248428 164.422191,42.7228512 164.668554,43.0308775 C164.905224,43.3405511 164.924609,43.6979934 164.924609,44.0743786 L164.924609,47.3473645 C164.924609,47.6669212 164.980344,47.71469 165.302635,47.7039832 L165.302635,48.110018 C165.113622,48.1866128 164.896338,48.1783768 164.696825,48.1396676 C164.450462,48.0424828 164.460155,47.9074124 164.403613,47.657038 L164.39392,47.657038 C164.119286,48.0424828 163.692796,48.225322 163.238035,48.225322 C162.281663,48.225322 162.054686,47.5598532 162.054686,46.7197814 C162.054686,46.1020815 162.225121,45.6383947 162.774388,45.3493112 C163.238035,45.1269392 163.740453,44.972926 164.2041,44.7497305 C164.289721,44.7118449 164.337378,44.6047769 164.346263,44.5372417 C164.384227,44.3156933 164.365649,43.871773 164.327685,43.649401 C164.251757,43.3306679 164.061936,43.1190027 163.579712,43.1190027 C162.802659,43.1190027 162.812352,43.6304582 162.726731,44.102381 L162.19685,44.102381 Z" id="Fill-152" fill="#FFFFFF"></path><path d="M166.456581,45.512631 C166.456581,46.2662249 166.504238,47.7330563 167.535731,47.7330563 C168.653652,47.7330563 168.559146,45.9277254 168.559146,45.1938979 C168.559146,44.46913 168.511488,43.1184262 167.50746,43.1184262 C166.466274,43.1184262 166.456581,44.7886867 166.456581,45.512631 Z M168.559146,40.8494085 L169.107605,40.8494085 L169.107605,48.0913223 L168.559146,48.0913223 L168.559146,47.5889263 L168.53976,47.5889263 C168.322476,48.0237871 167.914564,48.2263926 167.412953,48.2263926 C166.00182,48.2263926 165.907314,46.4787137 165.907314,45.4072102 C165.907314,44.3340596 166.030091,42.6259134 167.432339,42.6259134 C167.848329,42.6259134 168.265126,42.8384022 168.53976,43.1958446 L168.559146,43.1958446 L168.559146,40.8494085 Z" id="Fill-153" fill="#FFFFFF"></path><path d="M172.259513,45.2134172 C171.900066,45.4168464 171.530926,45.5519167 171.170671,45.7059299 C170.61171,45.9563043 170.488933,46.1786763 170.488933,46.807083 C170.488933,47.3275981 170.649674,47.7344564 171.21752,47.7344564 C171.577775,47.7344564 171.833831,47.5796196 171.994572,47.3383049 C172.221549,46.9998053 172.259513,46.5468254 172.259513,46.1506739 L172.259513,45.2134172 Z M170.081828,44.102381 C170.053557,43.1667715 170.564861,42.6248428 171.473576,42.6248428 C171.908951,42.6248428 172.30717,42.7228512 172.553533,43.0308775 C172.790202,43.3405511 172.809588,43.6979934 172.809588,44.0743786 L172.809588,47.3473645 C172.809588,47.6669212 172.865323,47.71469 173.187614,47.7039832 L173.187614,48.110018 C172.998601,48.1866128 172.780509,48.1783768 172.581804,48.1396676 C172.335441,48.0424828 172.345134,47.9074124 172.287784,47.657038 L172.278899,47.657038 C172.004265,48.0424828 171.577775,48.225322 171.123014,48.225322 C170.166642,48.225322 169.938857,47.5598532 169.938857,46.7197814 C169.938857,46.1020815 170.1101,45.6383947 170.659367,45.3493112 C171.123014,45.1269392 171.624624,44.972926 172.089078,44.7497305 C172.1747,44.7118449 172.221549,44.6047769 172.231242,44.5372417 C172.269206,44.3156933 172.250628,43.871773 172.212664,43.649401 C172.136735,43.3306679 171.946915,43.1190027 171.46469,43.1190027 C170.687638,43.1190027 170.697331,43.6304582 170.61171,44.102381 L170.081828,44.102381 Z" id="Fill-154" fill="#FFFFFF"></path><polygon id="Fill-155" fill="#FFFFFF" points="176.783782 48.0911575 176.168279 48.0911575 176.168279 40.8492438 177.200579 40.8492438 178.886346 47.1637841 178.904924 47.1637841 180.628655 40.8492438 181.632684 40.8492438 181.632684 48.0911575 181.016373 48.0911575 181.016373 41.4768269 180.997795 41.4768269 179.2361 48.0911575 178.583441 48.0911575 176.80236 41.4768269 176.783782 41.4768269"></polygon><path d="M183.088081,48.0907457 L183.637349,48.0907457 L183.637349,42.7604073 L183.088081,42.7604073 L183.088081,48.0907457 Z M183.050117,41.7663223 L183.684198,41.7663223 L183.684198,40.848832 L183.050117,40.848832 L183.050117,41.7663223 Z" id="Fill-156" fill="#FFFFFF"></path><path d="M185.577475,48.0911575 L185.0274,48.0911575 L185.0274,42.7599955 L185.577475,42.7599955 L185.577475,43.2821578 L185.596053,43.2821578 C185.861802,42.8860063 186.268099,42.6249251 186.779402,42.6249251 C187.452255,42.6249251 188.001523,43.0894355 188.001523,43.8603249 L188.001523,48.0911575 L187.452255,48.0911575 L187.452255,44.2194145 C187.452255,43.6107742 187.405406,43.1182615 186.685703,43.1182615 C186.135628,43.1182615 185.577475,43.5621818 185.577475,44.1617625 L185.577475,48.0911575 Z" id="Fill-157" fill="#FFFFFF"></path><path d="M191.399712,44.9045672 C191.399712,44.2292153 191.333477,43.1181791 190.442532,43.1181791 C189.591168,43.1181791 189.495853,44.2761605 189.495853,44.9045672 L191.399712,44.9045672 Z M191.94898,45.3979036 L189.495853,45.3979036 C189.495853,46.0831387 189.400539,47.7344564 190.480496,47.7344564 C191.256741,47.7344564 191.351247,46.9899221 191.399712,46.3524558 L191.929594,46.3524558 C191.929594,47.3275981 191.541875,48.2261456 190.471611,48.2261456 C189.012821,48.2261456 188.946586,46.5460018 188.946586,45.4448488 C188.946586,44.3733453 189.012821,42.6248428 190.452225,42.6248428 C191.664653,42.6248428 191.94898,43.8421234 191.94898,44.8559748 L191.94898,45.3979036 Z" id="Fill-158" fill="#FFFFFF"></path><path d="M193.263668,45.512631 C193.263668,46.2662249 193.311325,47.7330563 194.342817,47.7330563 C195.460738,47.7330563 195.366232,45.9277254 195.366232,45.1938979 C195.366232,44.46913 195.318575,43.1184262 194.315354,43.1184262 C193.272553,43.1184262 193.263668,44.7886867 193.263668,45.512631 Z M195.366232,40.8494085 L195.915499,40.8494085 L195.915499,48.0913223 L195.366232,48.0913223 L195.366232,47.5889263 L195.346846,47.5889263 C195.129562,48.0237871 194.722458,48.2263926 194.220847,48.2263926 C192.809714,48.2263926 192.713592,46.4787137 192.713592,45.4072102 C192.713592,44.3340596 192.837985,42.6259134 194.239425,42.6259134 C194.656223,42.6259134 195.072212,42.8384022 195.346846,43.1958446 L195.366232,43.1958446 L195.366232,40.8494085 Z" id="Fill-159" fill="#FFFFFF"></path><path d="M199.540262,42.7603249 L200.089529,42.7603249 L200.089529,48.091487 L199.557224,48.091487 L199.557224,47.5989742 L199.540262,47.5989742 C199.208278,48.0519542 198.772903,48.2257338 198.223635,48.2257338 C197.267263,48.2257338 197.066942,47.5306155 197.066942,46.7004268 L197.066942,42.7603249 L197.617825,42.7603249 L197.617825,46.796788 C197.617825,47.4737871 197.873073,47.782637 198.536233,47.7340446 C198.972416,47.7151018 199.369827,47.2711815 199.540262,46.8157308 L199.540262,42.7603249 Z" id="Fill-160" fill="#FFFFFF"></path><path d="M204.092559,46.3233004 C204.102252,47.3091494 203.741997,48.2266397 202.64427,48.2266397 C201.110359,48.2266397 201.052202,46.5942647 201.052202,45.3967505 C201.052202,44.2470051 201.176595,42.6253369 202.625692,42.6253369 C203.562678,42.6253369 204.055403,43.4456424 204.04571,44.3343067 L203.505328,44.3343067 C203.486749,43.6877808 203.183845,43.0980833 202.587728,43.1178497 C201.55462,43.1474993 201.602277,44.662923 201.602277,45.4931117 C201.602277,46.237646 201.583699,47.7333034 202.653963,47.7333034 C203.420514,47.7333034 203.486749,46.9319407 203.543292,46.3233004 L204.092559,46.3233004 Z" id="Fill-161" fill="#FFFFFF"></path><path d="M206.951174,45.2134172 C206.591727,45.4168464 206.221779,45.5519167 205.861524,45.7059299 C205.303371,45.9563043 205.180594,46.1786763 205.180594,46.807083 C205.180594,47.3275981 205.341335,47.7344564 205.909989,47.7344564 C206.268628,47.7344564 206.525492,47.5796196 206.686233,47.3383049 C206.91321,46.9998053 206.951174,46.5468254 206.951174,46.1506739 L206.951174,45.2134172 Z M204.77349,44.102381 C204.744411,43.1667715 205.255714,42.6248428 206.164429,42.6248428 C206.600612,42.6248428 206.998831,42.7228512 207.244386,43.0308775 C207.481056,43.3405511 207.500442,43.6979934 207.500442,44.0743786 L207.500442,47.3473645 C207.500442,47.6669212 207.556984,47.71469 207.879275,47.7039832 L207.879275,48.110018 C207.689454,48.1866128 207.472171,48.1783768 207.272657,48.1396676 C207.027102,48.0424828 207.03518,47.9074124 206.979445,47.657038 L206.969752,47.657038 C206.695118,48.0424828 206.268628,48.225322 205.814675,48.225322 C204.858303,48.225322 204.631326,47.5598532 204.631326,46.7197814 C204.631326,46.1020815 204.800953,45.6383947 205.351028,45.3493112 C205.814675,45.1269392 206.317093,44.972926 206.78074,44.7497305 C206.866361,44.7118449 206.91321,44.6047769 206.922903,44.5372417 C206.960867,44.3156933 206.941481,43.871773 206.903517,43.649401 C206.828397,43.3306679 206.637768,43.1190027 206.155544,43.1190027 C205.379299,43.1190027 205.387377,43.6304582 205.303371,44.102381 L204.77349,44.102381 Z" id="Fill-162" fill="#FFFFFF"></path><path d="M211.456946,46.3233004 C211.466638,47.3091494 211.106384,48.2266397 210.008656,48.2266397 C208.473938,48.2266397 208.416588,46.5942647 208.416588,45.3967505 C208.416588,44.2470051 208.540981,42.6253369 209.990078,42.6253369 C210.927064,42.6253369 211.418981,43.4456424 211.410096,44.3343067 L210.869714,44.3343067 C210.851136,43.6877808 210.548231,43.0980833 209.951306,43.1178497 C208.919006,43.1474993 208.965855,44.662923 208.965855,45.4931117 C208.965855,46.237646 208.948085,47.7333034 210.017541,47.7333034 C210.7849,47.7333034 210.851136,46.9319407 210.907678,46.3233004 L211.456946,46.3233004 Z" id="Fill-163" fill="#FFFFFF"></path><path d="M212.525594,48.0907457 L213.074862,48.0907457 L213.074862,42.7604073 L212.525594,42.7604073 L212.525594,48.0907457 Z M212.48763,41.7663223 L213.120903,41.7663223 L213.120903,40.848832 L212.48763,40.848832 L212.48763,41.7663223 Z" id="Fill-164" fill="#FFFFFF"></path><path d="M215.365469,42.2391509 L216.417155,40.8966831 L217.155435,40.8966831 L215.849309,42.2391509 L215.365469,42.2391509 Z M217.052044,45.4157757 C217.052044,44.5864106 217.03185,43.117932 215.905852,43.117932 C214.920401,43.117932 214.863859,44.5757038 214.863859,45.3103549 C214.863859,46.1018344 214.807316,47.7333857 215.934123,47.7333857 C217.041543,47.7333857 217.052044,46.217962 217.052044,45.4157757 Z M214.314591,45.2996481 C214.314591,44.1037811 214.532683,42.6262429 215.972087,42.6262429 C217.438954,42.6262429 217.601311,44.2380279 217.601311,45.4075397 C217.601311,46.6141135 217.448647,48.2267221 215.943816,48.2267221 C214.351747,48.2267221 214.314591,46.5358715 214.314591,45.2996481 Z" id="Fill-165" fill="#FFFFFF"></path><path d="M219.217289,48.0911575 L218.668021,48.0911575 L218.668021,42.7599955 L219.217289,42.7599955 L219.217289,43.2821578 L219.236675,43.2821578 C219.502424,42.8860063 219.90872,42.6249251 220.420024,42.6249251 C221.092876,42.6249251 221.642144,43.0894355 221.642144,43.8603249 L221.642144,48.0911575 L221.092876,48.0911575 L221.092876,44.2194145 C221.092876,43.6107742 221.045219,43.1182615 220.326325,43.1182615 C219.77625,43.1182615 219.217289,43.5621818 219.217289,44.1617625 L219.217289,48.0911575 Z" id="Fill-166" fill="#FFFFFF"></path></g></g></svg>